    <svg stroke-width='1.5' stroke='#fff' width="17" height="17" viewBox="0 0 17 17" fill="none" xmlns="http://www.w3.org/2000/svg"><g clip-path="url(#clip0)"><mask  fill="white"><path d="M16.7383 15.4724C17.0872 15.8213 17.0872 16.3894 16.7383 16.7383C16.3893 17.0872 15.821 17.0872 15.472 16.7383L11.0962 12.3636C10.9217 12.1892 10.613 12.1668 10.4161 12.301C10.4161 12.301 10.2953 12.3949 10.0358 12.5426C9.05593 13.0972 7.91946 13.4193 6.71141 13.4193C3.00671 13.4193 0 10.4134 0 6.70964C0 3.00592 3.00671 0 6.71141 0C10.4161 0 13.4228 3.00592 13.4228 6.70964C13.4228 7.92633 13.0962 9.07144 12.5324 10.0555C12.3848 10.306 12.3043 10.4089 12.3043 10.4089C12.1611 10.6147 12.1879 10.9188 12.3624 11.0933L16.7383 15.4724ZM6.71141 11.63C9.43177 11.63 11.6331 9.42929 11.6331 6.70964C11.6331 3.99 9.43177 1.78924 6.71141 1.78924C3.99105 1.78924 1.78971 3.99 1.78971 6.70964C1.78971 9.42929 3.99105 11.63 6.71141 11.63Z"></path></mask><path d="M16.7383 15.4724C17.0872 15.8213 17.0872 16.3894 16.7383 16.7383C16.3893 17.0872 15.821 17.0872 15.472 16.7383L11.0962 12.3636C10.9217 12.1892 10.613 12.1668 10.4161 12.301C10.4161 12.301 10.2953 12.3949 10.0358 12.5426C9.05593 13.0972 7.91946 13.4193 6.71141 13.4193C3.00671 13.4193 0 10.4134 0 6.70964C0 3.00592 3.00671 0 6.71141 0C10.4161 0 13.4228 3.00592 13.4228 6.70964C13.4228 7.92633 13.0962 9.07144 12.5324 10.0555C12.3848 10.306 12.3043 10.4089 12.3043 10.4089C12.1611 10.6147 12.1879 10.9188 12.3624 11.0933L16.7383 15.4724ZM6.71141 11.63C9.43177 11.63 11.6331 9.42929 11.6331 6.70964C11.6331 3.99 9.43177 1.78924 6.71141 1.78924C3.99105 1.78924 1.78971 3.99 1.78971 6.70964C1.78971 9.42929 3.99105 11.63 6.71141 11.63Z" fill="white" stroke="#F9F6F0" stroke-width="0.2" mask="url(#path-2-inside-1)"></path></g><defs><clipPath id="clip0"><rect width="1600" height="900" fill="white"></rect></clipPath></defs></svg>
