<?xml version="1.0" encoding="UTF-8"?><svg id="Art" xmlns="http://www.w3.org/2000/svg" viewBox="0 0 100 100"><defs><style>.cls-1{stroke-width:.75px;}.cls-1,.cls-2,.cls-3{fill:none;stroke:#404041;stroke-linejoin:round;}.cls-1,.cls-3{stroke-linecap:round;}.cls-2,.cls-3{stroke-width:1.5px;}</style></defs><path class="cls-3" d="M21.19,80.06c15.47-1.18,29.44-9.91,39.44-21.46,11.92-13.78,20.88-31.21,28.63-47.59"/><path class="cls-2" d="M77.94,33.24s11.31,10.24,11.31,23.59-7.01,22.64-7.01,22.64c0,0-21.55-15.9-4.3-46.23Z"/><path class="cls-2" d="M81.61,26.48s-9.44-11.7-26.38-11.7-23.95,13.48-23.95,13.48c0,0,13.75,10.68,26.43,10.68s23.9-12.46,23.9-12.46Z"/><circle class="cls-2" cx="46.92" cy="61.17" r="8.23"/><circle class="cls-2" cx="29.31" cy="71.72" r="5.9"/><circle class="cls-2" cx="35.21" cy="82.92" r="5.9"/><circle class="cls-2" cx="15.29" cy="80.92" r="5.9"/><circle class="cls-2" cx="52.95" cy="77.02" r="8.23"/><path class="cls-1" d="M77.94,33.24s4.37,17.13,3.66,33.59"/><path class="cls-1" d="M81.61,26.48s-17.7-4.75-37.66,0"/><circle class="cls-1" cx="44.81" cy="58.01" r="3.16"/><circle class="cls-1" cx="50.07" cy="80.57" r="3.16"/><circle class="cls-1" cx="26.96" cy="71.61" r="2.64"/><circle class="cls-1" cx="34.49" cy="85.08" r="2.64"/><circle class="cls-1" cx="14.35" cy="83.08" r="2.64"/></svg>