<?xml version="1.0" encoding="UTF-8"?><svg id="Art" xmlns="http://www.w3.org/2000/svg" viewBox="0 0 100 100"><defs><style>.cls-1{fill:#333;}.cls-2{fill:none;stroke:#404041;stroke-linejoin:round;stroke-width:1.5px;}</style></defs><circle class="cls-2" cx="50" cy="51.04" r="37.77"/><path class="cls-1" d="M23.1,24.42c-.05,1.94,1.2,3.99,3.35,3.89,1.63-.08,2.9-1.39,4-2.45s2.49-2.56,4.16-2.2c.6,.13,1.1,.48,1.52,.91,.19,.19,.36,.4,.52,.61,.21,.28,.37,.71,.61,.95,.11,.1,.05-.1,.04-.04-.02,.08-.05,.14-.07,.2-.11,.27-.28,.52-.43,.76-.86,1.38-1.87,2.68-2.96,3.89-.38,.42-.79,.91-1.28,1.22-.52,.32-1.05,.59-1.54,.97-1.47,1.12-2.77,2.49-3.86,3.99-.97,1.34-1.96,3.05-1.88,4.77,.06,1.18,.62,2.36,.96,3.48,.18,.61,.43,1.37,.47,1.94,.02,.22-.01,.05,.19-.1,.07-.05,.19,0,.03-.04-.31-.06-.6-.12-.91-.05l.49,.13c-2.58-2.22-6.31-5.11-9.51-2.31-1.28,1.12-2.14,2.9-1.56,4.6,.26,.76,.76,1.45,1.47,1.84,.77,.42,1.65,.37,2.5,.36,.44,0,.92-.02,1.32,.19,.45,.23,.58,.69,.73,1.14,.23,.67,.53,1.18,1.06,1.65,1.06,.93,2.31,1.71,3.61,2.28,.46,.2,.98,.43,1.5,.4,.65-.03,1.13-.75,1.6-1.12,.84-.65,1.75-1.2,2.64-1.78,.4-.26,.8-.52,1.19-.81,.35-.26,.78-.68,1.24-.73,.71-.07,1.48,.64,2,1.05,.55,.43,1.08,.9,1.72,1.19,1.72,.77,3.59,1.16,5.33,1.88,.85,.35,1.73,.79,2.37,1.46,.6,.63,.94,1.43,1.14,2.27s.24,1.71,.23,2.56,.01,1.92-.24,2.77c-.31,1.04-1.33,1.83-2.05,2.59s-1.43,1.59-2.08,2.44c-1.21,1.59-2.21,3.4-2.56,5.39s-.09,3.89,.94,5.56c.21,.33,.79,1.09,.11,1.22-.43,.08-1.02-.23-1.38-.41-.83-.4-1.56-.95-2.21-1.6-1.35-1.35-2.29-3.08-2.98-4.85-.86-2.19-1.45-4.5-1.73-6.83-.12-1-.22-2.01-.69-2.92-.36-.69-.91-1.28-1.49-1.78-1.18-1.02-2.71-1.82-3.52-3.21-.59-1.01-.52-2.13-.14-3.21,.11-.32-.18-.62-.48-.63-2.62-.14-5.37-.42-7.6-1.91-1.01-.67-1.85-1.55-2.87-2.21-.48-.31-1-.53-1.48-.83-.61-.38-1.19-.8-1.75-1.24-.5-.39-1.21,.31-.71,.71,1.05,.81,2.14,1.44,3.26,2.12s2.08,1.7,3.22,2.43c2.35,1.49,5.21,1.79,7.93,1.94l-.48-.63c-.56,1.57-.42,3.2,.62,4.53,.84,1.07,2.01,1.79,3.05,2.65,.5,.41,.99,.85,1.35,1.39,.54,.81,.67,1.76,.78,2.7,.23,1.92,.62,3.81,1.22,5.65,.95,2.91,2.36,5.9,4.87,7.78,.94,.7,2.73,1.86,3.94,1.18,1.56-.88-.25-2.82-.59-3.86-1.16-3.57,.88-7.09,3.14-9.71,.58-.67,1.18-1.31,1.79-1.95s1.19-1.22,1.48-2.03c.25-.71,.26-1.53,.31-2.27,.04-.71,.05-1.42,0-2.12-.09-1.37-.4-2.78-1.24-3.91-.88-1.18-2.24-1.82-3.58-2.34-1.51-.59-3.09-.98-4.59-1.58-1.22-.49-2.05-1.59-3.23-2.15-.48-.23-1-.36-1.52-.22-.79,.21-1.45,.88-2.12,1.33-1.36,.9-2.8,1.71-4,2.83-.08,.08-.43,.26-.19,.22,.05,0-.12,0-.13,0-.15-.07-.35-.08-.52-.13-.57-.19-1.1-.48-1.62-.78-.9-.52-2.25-1.22-2.75-2.19-.29-.57-.34-1.22-.76-1.73-.47-.57-1.18-.77-1.89-.81-.75-.05-1.56,.13-2.28-.12-.76-.26-1.25-1-1.39-1.77-.29-1.59,1-3.24,2.39-3.87,1.46-.66,3.08,.07,4.33,.84,.72,.44,1.39,.95,2.04,1.49,.26,.22,.55,.56,.85,.72,.15,.07,.23,.05,.39,.05,.09,0-.11,0,.04,0,.17,0,.05,0,.28,.04,.14,.03,.29,.07,.43,.06,1.41-.09,.23-2.87,.05-3.46-.37-1.23-1-2.46-.72-3.77,.25-1.12,.84-2.14,1.48-3.07,1.25-1.8,2.96-3.67,4.92-4.69,.67-.35,1.19-.88,1.7-1.44,.75-.82,1.44-1.69,2.09-2.57,.54-.73,1.1-1.48,1.5-2.3,.11-.22,.23-.47,.24-.71,0-.52-.49-1.08-.78-1.47-.81-1.12-1.96-2.07-3.41-2.07-1.05,0-1.99,.52-2.8,1.15-.89,.69-1.66,1.53-2.5,2.27-.7,.62-1.58,1.33-2.58,1.28-1.49-.07-2.15-1.57-2.12-2.89,.02-.64-.98-.64-1,0h0Z"/><path class="cls-1" d="M74.39,20.93c-1.69-.83-3.68-.1-4.77,1.36-1.38,1.86-.94,4.4,0,6.34,.09,.19,.37,.29,.56,.23,.78-.26,1.55-.31,2.35-.12l-.37-.48c.07,1.3-.84,2.4-2.08,2.72-1.42,.38-2.51-.29-3.79-.76-2.21-.82-4.08,.98-4.89,2.89-.23,.55-.35,1.2-.81,1.62s-1.08,.53-1.61,.75c-.99,.41-1.82,1.16-2.3,2.12-.45,.89-.72,2.11,.35,2.65,.92,.47,2.06,.41,3.04,.25,1.12-.19,2.2-.58,3.31-.78,1.31-.23,2.33,.06,3.51,.63,1.01,.49,2.04,.89,3.15,.51,.48-.17,.93-.44,1.42-.58,.77-.22,.95,.47,1.22,1.05l.84,1.85,.05,.11c.08,.32,.16,.29,.25-.09-.01-.08,.11,.03,0-.02,.01,0-.17,.05-.24,.07-.63,.16-1.3,.22-1.95,.29-.71,.07-1.42,.13-2.13,.16-.79,.04-1.51-.13-2.27-.36-1.24-.37-2.46-.84-3.77-.92-1.1-.07-2.22,.16-3.25,.55-2.08,.8-4.01,2.29-5.12,4.24s-1.42,4.49-.57,6.62,2.58,3.4,4.73,3.84c.96,.2,1.98,.35,2.54,1.24,.68,1.09,.91,2.44,1.12,3.68,.25,1.48,.53,2.88,1.03,4.3s1.13,2.95,1.92,4.31c.65,1.11,1.49,2.36,2.7,2.9,1.55,.69,2.98-.44,3.94-1.59,1.53-1.84,2.32-4.3,2.76-6.63,.26-1.35,.35-2.72,.25-4.09s-.33-2.78,.09-4.12c.59-1.9,2.3-3.1,3.51-4.59,.61-.76,1.09-1.58,1.39-2.52,.09-.28-.16-.67-.48-.63-1.32,.15-2.7-.58-3.79-1.27-.79-.5-1.39-1.76-.65-2.54l-.84-.22c.92,2.82,4.34,4.01,6.75,2.2,.61-.46,1.03-1.05,1.39-1.73,.29-.55,.48-1.17,1.08-1.45,.83-.39,2.12-.75,3.04-.6,.63,.1,.9-.86,.27-.96-.9-.14-1.88,.08-2.74,.32-.45,.12-.92,.27-1.31,.52-.49,.3-.73,.8-.99,1.3-.37,.7-.72,1.39-1.38,1.86-.58,.41-1.27,.64-1.98,.65-1.44,0-2.71-1-3.15-2.35-.11-.35-.57-.5-.84-.22-1,1.05-.68,2.67,.27,3.64,.58,.6,1.47,.97,2.22,1.32,.84,.38,1.72,.66,2.65,.55l-.48-.63c-.61,1.91-2.18,3.1-3.43,4.57-.59,.69-1.08,1.44-1.39,2.3-.43,1.19-.38,2.46-.28,3.7,.12,1.4,.18,2.77-.04,4.17-.2,1.28-.53,2.56-.98,3.78-.41,1.12-.96,2.23-1.75,3.13-.49,.56-1.2,1.31-1.98,1.38-1.15,.11-2.09-1.25-2.63-2.08-.83-1.28-1.45-2.69-1.97-4.11-.44-1.2-.8-2.4-1.02-3.66s-.36-2.44-.76-3.61c-.33-.97-.78-1.97-1.7-2.51-.78-.46-1.69-.55-2.55-.75-1.06-.25-1.96-.8-2.68-1.63-1.61-1.84-1.7-4.6-.69-6.75s2.99-3.7,5.15-4.43c1.08-.36,2.2-.5,3.33-.29,1.32,.24,2.56,.81,3.88,1.08,1.22,.25,2.49,.07,3.71-.06,.67-.07,1.35-.14,2.01-.29,.39-.09,.93-.24,.93-.73,0-.44-.39-.99-.57-1.37-.29-.63-.55-1.28-.87-1.9-.49-.95-1.35-1.19-2.32-.83-.48,.18-.93,.46-1.43,.58-.62,.15-1.22-.06-1.77-.31-1-.46-1.91-.97-3.04-1.03-2.22-.12-4.33,1.33-6.53,.95-.21-.04-.64-.09-.8-.26-.23-.24-.07-.65,.03-.91,.2-.54,.55-1.03,.98-1.41,.85-.74,2.07-.79,2.9-1.56s.93-1.99,1.53-2.89,1.63-1.78,2.8-1.49c.61,.15,1.16,.51,1.75,.72,.55,.2,1.15,.31,1.74,.32,1.08,.02,2.16-.35,2.95-1.11,.74-.71,1.16-1.7,1.1-2.73-.01-.21-.15-.43-.37-.48-.97-.22-1.93-.19-2.88,.12l.56,.23c-.74-1.52-1.15-3.53-.18-5.06,.72-1.15,2.29-1.91,3.59-1.28,.58,.28,1.08-.58,.5-.86h0Z"/><path class="cls-1" d="M40.88,14.82c1.94,.79,3.55,2.3,4.48,4.17,.48,.96,.72,2.02,1.44,2.85s1.65,1.26,2.6,1.66c.41,.18,.84,.38,1.3,.3,.5-.09,.87-.47,1.24-.79,.87-.77,1.78-1.52,2.84-2.02,2.26-1.07,4.79-.38,7.15-.93,1.92-.45,3.88-1.82,3.94-3.96,.02-.64-.98-.64-1,0-.05,1.89-2.16,2.9-3.8,3.11-2.16,.27-4.38-.11-6.45,.77-.94,.4-1.78,.99-2.58,1.64-.38,.31-.74,.66-1.12,.97-.54,.44-1.12,.03-1.66-.22-.94-.45-1.74-1-2.21-1.96-.43-.88-.71-1.81-1.23-2.65-1.1-1.77-2.75-3.11-4.67-3.89-.6-.24-.85,.72-.27,.96h0Z"/></svg>