<?xml version="1.0" encoding="UTF-8"?><svg id="Art" xmlns="http://www.w3.org/2000/svg" viewBox="0 0 100 100"><defs><style>.cls-1{stroke-linecap:round;stroke-width:.75px;}.cls-1,.cls-2{fill:none;stroke:#404041;stroke-linejoin:round;}.cls-2{stroke-width:1.5px;}</style></defs><path class="cls-2" d="M67.52,46.91l4.11,1.11-4.15,1.12c-11.58,3.12-20.62,12.16-23.74,23.74l-1.12,4.15-1.12-4.16c-3.12-11.57-12.16-20.61-23.73-23.73l-4.16-1.12,4.08-1.1c11.62-3.13,20.69-12.2,23.82-23.82l1.1-4.08,1.11,4.11c3.12,11.6,12.19,20.67,23.79,23.79Z"/><path class="cls-2" d="M81.91,74.34l1.98,.53-2,.54c-5.58,1.5-9.93,5.86-11.44,11.44l-.54,2-.54-2c-1.5-5.58-5.86-9.93-11.43-11.43l-2-.54,1.97-.53c5.6-1.51,9.97-5.88,11.48-11.48l.53-1.97,.53,1.98c1.51,5.59,5.87,9.96,11.46,11.46Z"/><path class="cls-1" d="M71.16,22.25l.77,.21-.77,.21c-2.16,.58-3.85,2.27-4.43,4.43l-.21,.77-.21-.78c-.58-2.16-2.27-3.85-4.43-4.43l-.78-.21,.76-.21c2.17-.58,3.86-2.28,4.45-4.45l.21-.76,.21,.77c.58,2.17,2.28,3.86,4.44,4.44Z"/><path class="cls-1" d="M21.7,67.89l.77,.21-.77,.21c-2.16,.58-3.85,2.27-4.43,4.43l-.21,.77-.21-.78c-.58-2.16-2.27-3.85-4.43-4.43l-.78-.21,.76-.21c2.17-.58,3.86-2.28,4.45-4.45l.21-.76,.21,.77c.58,2.17,2.28,3.86,4.44,4.44Z"/></svg>