<?xml version="1.0" encoding="UTF-8"?><svg id="Art" xmlns="http://www.w3.org/2000/svg" viewBox="0 0 100 100"><defs><style>.cls-1{stroke-width:.75px;}.cls-1,.cls-2{fill:none;stroke:#404041;stroke-linecap:round;stroke-linejoin:round;}.cls-3{fill:#404041;}.cls-2{stroke-width:1.5px;}</style></defs><g><ellipse class="cls-2" cx="34.72" cy="72.81" rx="13.29" ry="9.68" transform="translate(-45.75 67.3) rotate(-60.59)"/><path class="cls-3" d="M42.6,62.07c-3.87-.7-6.41,3.2-7.39,6.39-1.19,3.9-1.1,8.35-3.42,11.85-1.12,1.68-2.75,2.82-4.76,3.12-.48,.07-.27,.79,.2,.72,3.34-.49,5.47-3.18,6.54-6.21,1.39-3.92,1.14-8.5,3.38-12.1,1.1-1.77,3.02-3.45,5.25-3.05,.47,.09,.67-.64,.2-.72h0Z"/></g><g><ellipse class="cls-2" cx="62.76" cy="78.99" rx="9.68" ry="13.29" transform="translate(-19.01 138.1) rotate(-87.39)"/><path class="cls-3" d="M75.84,77.77c-2.75,2.9-7.01,3.86-10.75,2.48s-6.71-4.26-10.8-4.49c-1.86-.1-3.74,.4-5.04,1.79-.33,.35,.2,.88,.53,.53,2.79-2.97,7.31-1.22,10.28,.43,1.82,1.01,3.62,2.14,5.64,2.72,1.74,.51,3.6,.53,5.37,.11,2.02-.48,3.88-1.54,5.31-3.05,.33-.35-.2-.88-.53-.53h0Z"/></g><g><ellipse class="cls-2" cx="58.67" cy="51.61" rx="13.29" ry="9.68" transform="translate(-14.55 24.33) rotate(-20.9)"/><path class="cls-3" d="M71.69,48.25c-3.15-1.9-6.86-.37-9.51,1.65-2.96,2.26-5.69,5.56-9.65,5.88-2.37,.19-4.68-.62-6.88-1.39-.46-.16-.65,.57-.2,.72,1.85,.64,3.74,1.28,5.71,1.42,1.83,.12,3.57-.31,5.18-1.18,3.29-1.79,5.6-5.05,9.07-6.55,1.87-.81,4.1-.99,5.9,.09,.41,.25,.79-.4,.38-.65h0Z"/></g><path class="cls-1" d="M46.86,33.36c0-3.35,4.17-3.35,4.17-6.69s-4.17-3.35-4.17-6.7,4.17-3.35,4.17-6.7"/><path class="cls-1" d="M50.37,38.06c-1.17-1.57-3.51-2.19-3.51-4.7"/><path class="cls-1" d="M62.89,33.36c0-3.35,4.17-3.35,4.17-6.69s-4.17-3.35-4.17-6.7,4.17-3.35,4.17-6.7"/><path class="cls-1" d="M32.93,52.61c0-3.93,4.17-3.93,4.17-7.86,0-3.93-4.17-3.93-4.17-7.87s4.17-3.93,4.17-7.87-4.17-3.94-4.17-7.87,4.17-3.94,4.17-7.87"/></svg>