<?xml version="1.0" encoding="UTF-8"?><svg id="Art" xmlns="http://www.w3.org/2000/svg" viewBox="0 0 100 100"><defs><style>.cls-1{fill:none;stroke:#404041;stroke-linejoin:round;stroke-width:1.5px;}</style></defs><path class="cls-1" d="M81.03,37.34c0,1.39-16.41,2.52-36.64,2.52s-36.64-1.13-36.64-2.52"/><path class="cls-1" d="M82.59,43.81h-1.98c.41-3.93,.42-6.47,.42-6.47,0-1.39-16.41-2.52-36.64-2.52s-36.64,1.13-36.64,2.52c0,0,.07,51,36.64,51,9.67,0,16.78-3.57,22.02-8.81,3.12-3.12,6.63-5.63,10.51-7.16,1.39-.55,2.82-1.14,4.12-1.74,7.83-3.58,13.68-7.79,13.68-16.13,0-7.54-5.07-10.69-12.12-10.69Zm-3.22,21.72l-.05,.02c-1.73,.79-3.4-1.31-2.67-3.33,1.5-4.17,2.35-7.8,2.99-11.67l.7-.31c1.93-.84,4.03-1.1,6.03-.54,3.73,1.04,3.73,3.66,3.73,4.79,0,3.78-1.8,6.94-10.73,11.03Z"/></svg>