<svg xmlns="http://www.w3.org/2000/svg" height="24" viewBox="0 96 960 960" width="24"><path d="M213.5 656q0-59 19.25-110.75T283 450q31-43.5 69-78.5t75-60.5v37q0 61.5 41.25 97.25T561 481q20 0 38.25-6T635 457.5l16.5-10q44 38 69.75 92.25T747 656q0 93.5-55.75 164.25T549.5 914.5q23.5-17 36.75-42.25T599.5 818q0-22.5-9-44t-25-38.5l-85.5-83-84 83q-17 17-26.25 38T360.5 818q0 29 13.25 54.25t36.75 42.25Q325 891 269.25 820.25T213.5 656ZM480 688l67 66q13 13 20 29t7 35q0 38-27.5 65T480 910q-39 0-66.5-27T386 818q0-18 6.75-34T413 754l67-66Z"/></svg>