<svg xmlns="http://www.w3.org/2000/svg" height="24" viewBox="0 96 960 960" width="24"><path d="M189 868.5q-50 0-84.75-34.75T69.5 748.586q0-7.586.5-14.503.5-6.916 2.5-15.083l84-336q11.742-44.074 47.264-72.037Q239.286 283 285 283h390q45.661 0 81.142 27.99Q791.623 338.979 804 383l84 336q2 8 3 15.42 1 7.419 1 15.166 0 50.414-35.25 84.664t-85.682 34.25q-34.568 0-63.318-18.25T663.5 801.5l-29-59q-8-16.5-24.5-25.25t-35-8.75H385q-18.242 0-34.871 8.5T326 742.5l-28.804 59Q282 833 252.566 850.75 223.132 868.5 189 868.5Zm351-346q10.5 0 18.75-8T567 496q0-10.5-8.25-18.75T540 469q-10.5 0-18.5 8.25t-8 18.75q0 10.5 8 18.5t18.5 8Zm80-80q10.5 0 18.75-8T647 416q0-10.5-8.25-18.75T620 389q-10.5 0-18.5 8.25t-8 18.75q0 10.5 8 18.5t18.5 8Zm0 160q10.5 0 18.75-8T647 576q0-10.5-8.25-18.75T620 549q-10.5 0-18.5 8.25t-8 18.75q0 10.5 8 18.5t18.5 8Zm80-80q10.5 0 18.75-8T727 496q0-10.5-8.25-18.75T700 469q-10.5 0-18.5 8.25t-8 18.75q0 10.5 8 18.5t18.5 8ZM339.907 579q5.5 0 9.546-3.717 4.047-3.716 4.047-9.283v-57H410q5.5 0 9.5-3.703 4-3.704 4-9.204t-4-9.546q-4-4.047-9.5-4.047h-56.5V426q0-5.5-4-9.5t-9.5-4q-5.5 0-9.25 4T327 426v56.5h-57q-5.567 0-9.283 4-3.717 4-3.717 9.5t3.717 9.25Q264.433 509 270 509h57v57q0 5.567 3.703 9.283 3.704 3.717 9.204 3.717Z"/></svg>