<svg xmlns="http://www.w3.org/2000/svg" height="24" viewBox="0 96 960 960" width="24"><path d="M482.465 772.5q10.275 0 17.405-7.095 7.13-7.095 7.13-17.37 0-10.275-7.095-17.405-7.095-7.13-17.37-7.13-10.275 0-17.405 7.095-7.13 7.095-7.13 17.37 0 10.275 7.095 17.405 7.095 7.13 17.37 7.13ZM467 649h26q2-23.5 10.75-38.75t30.75-37.75q27-26.5 39-47.096 12-20.595 12-45.906 0-44.05-29.884-71.024-29.885-26.974-71.419-26.974-38.319 0-66.176 20.838Q390.165 423.176 376 449.5l26.606 11q10.894-23 28.898-38 18.003-15 50.496-15 41 0 59.5 22.5t18.5 49.5q0 21.143-10.893 36.768T520.5 549q-31 29.5-42.25 52.5T467 649Zm13.238 270q-71.145 0-133.868-27.023t-109.12-73.348q-46.398-46.325-73.324-108.826Q137 647.301 137 576.238q0-71.145 27.023-133.868t73.348-109.12q46.325-46.398 108.826-73.324Q408.699 233 479.762 233q71.145 0 133.868 27.023t109.12 73.348q46.398 46.325 73.324 108.826Q823 504.699 823 575.762q0 71.144-27.023 133.868-27.023 62.723-73.348 109.12-46.325 46.398-108.826 73.324Q551.301 919 480.238 919Z"/></svg>