<?xml version="1.0" encoding="utf-8"?>
<!-- Generator: Adobe Illustrator 23.0.0, SVG Export Plug-In . SVG Version: 6.00 Build 0)  -->
<svg version="1.1" id="Layer_1" xmlns="http://www.w3.org/2000/svg" xmlns:xlink="http://www.w3.org/1999/xlink" x="0px" y="0px"
	 viewBox="24 36 208 191.943" enable-background="new 24 36 208 191.943" xml:space="preserve">
<path d="M232,118c0,45.288-46.563,82-104,82c-6.304,0-12.477-0.441-18.472-1.29c-6.001,4.23-40.672,28.583-43.944,29.04
	c0,0-1.342,0.522-2.483-0.15c-1.141-0.672-0.934-2.434-0.934-2.434c0.344-2.346,8.988-32.195,10.581-37.689
	C43.466,172.97,24,147.279,24,118c0-45.287,46.562-82,104-82C185.437,36,232,72.713,232,118z M76.5,140.895V105.25h9.362
	c3.246,0,5.888-2.636,5.888-5.875c0-3.239-2.641-5.875-5.888-5.875H55.138c-3.246,0-5.888,2.636-5.888,5.875
	c0,3.239,2.641,5.875,5.888,5.875H64.5v35.645c0,3.16,2.691,5.73,6,5.73C73.809,146.625,76.5,144.055,76.5,140.895z
	 M123.112,146.547c1.321,0,2.639-0.286,3.814-0.827c1.654-0.761,3.244-2.86,1.418-8.532l-14.346-37.758
	c-1.013-2.879-4.084-5.84-8.003-5.928c-3.908,0.089-6.979,3.049-7.99,5.922l-14.352,37.776c-1.822,5.658-0.232,7.757,1.422,8.52
	c1.173,0.542,2.493,0.828,3.814,0.828c2.502,0,4.415-1.015,4.99-2.646l2.973-7.782l18.296,0.001l2.971,7.777
	C118.696,145.531,120.61,146.547,123.112,146.547C123.112,146.547,123.111,146.547,123.112,146.547z M111.993,125.491h-11.986
	L106,108.466L111.993,125.491L111.993,125.491z M157.25,145.75c3.171,0,5.75-2.468,5.75-5.5c0-3.032-2.579-5.5-5.75-5.5H144.5V99.5
	c0-3.309-2.748-6-6.125-6s-6.125,2.691-6.125,6v40.75c0,3.032,2.579,5.5,5.75,5.5H157.25z M177.336,140.544v-13.091l2.082-2.082
	l14.07,18.645c1.146,1.517,2.892,2.385,4.794,2.385c1.312,0,2.559-0.418,3.608-1.211c1.279-0.965,2.107-2.369,2.328-3.957
	c0.223-1.588-0.186-3.166-1.152-4.445l-14.768-19.566l13.673-13.671c0.94-0.941,1.411-2.238,1.324-3.653
	c-0.086-1.403-0.713-2.754-1.764-3.804c-1.127-1.126-2.631-1.772-4.129-1.772c-1.284,0-2.467,0.474-3.328,1.335l-16.74,16.74V99.5
	c0-3.309-2.691-6-6-6c-3.309,0-6,2.691-6,6v41.047c0,3.309,2.691,6,6,6C174.643,146.547,177.334,143.856,177.336,140.544z"/>
</svg>
