<svg xmlns="http://www.w3.org/2000/svg"  viewBox="0 0 32 32" width="24px" height="24px"><path d="M 6.1015625 6.1015625 C 3.5675625 8.6345625 2 12.134 2 16 C 2 19.866 3.5675625 23.365437 6.1015625 25.898438 L 7.5195312 24.480469 C 5.3465312 22.307469 4 19.308 4 16 C 4 12.692 5.3465312 9.6925313 7.5195312 7.5195312 L 6.1015625 6.1015625 z M 25.898438 6.1015625 L 24.480469 7.5195312 C 26.653469 9.6925312 28 12.692 28 16 C 28 19.308 26.653469 22.307469 24.480469 24.480469 L 25.898438 25.898438 C 28.432437 23.365437 30 19.866 30 16 C 30 12.134 28.432437 8.6345625 25.898438 6.1015625 z M 9.6367188 9.6367188 C 8.0077188 11.265719 7 13.515 7 16 C 7 18.485 8.0077187 20.734281 9.6367188 22.363281 L 11.052734 20.947266 C 9.7847344 19.680266 9 17.93 9 16 C 9 14.07 9.7847344 12.319734 11.052734 11.052734 L 9.6367188 9.6367188 z M 22.363281 9.6367188 L 20.947266 11.052734 C 22.215266 12.319734 23 14.07 23 16 C 23 17.93 22.215266 19.680266 20.947266 20.947266 L 22.363281 22.363281 C 23.992281 20.734281 25 18.485 25 16 C 25 13.515 23.992281 11.265719 22.363281 9.6367188 z M 16 12 A 4 4 0 0 0 16 20 A 4 4 0 0 0 16 12 z"/></svg>