<svg xmlns="http://www.w3.org/2000/svg" viewBox="0 0 65.44 51.53"><defs><style>.cls-1{fill:#fff;}</style></defs><title>logo</title><g id="Layer_2" data-name="Layer 2"><g id="Layer_4" data-name="Layer 4"><path class="cls-1" d="M4.7,46v.83H2.85v4.65h-1V46.81H0V46Z"/><path class="cls-1" d="M6.46,46v2.3h2.7V46h1v5.47h-1V49.15H6.46v2.31h-1V46Z"/><path class="cls-1" d="M14.67,46v.83H12.32v1.44h2.26v.83H12.32v1.56h2.41v.83H11.31V46Z"/><path class="cls-1" d="M18.48,46l1.29,3.38L21.14,46H22l1.37,3.39L24.65,46h1l-2.14,5.54H23.2l-1.64-4.06-1.64,4.06h-.33L17.45,46Z"/><path class="cls-1" d="M27.31,46v5.47h-1V46Z"/><path class="cls-1" d="M30,45.91a2.92,2.92,0,0,1,1.46.4v.94A2.77,2.77,0,0,0,30,46.74a1,1,0,0,0-.59.15.49.49,0,0,0-.21.41.72.72,0,0,0,.4.57q.11.08.86.44a2.48,2.48,0,0,1,.92.7,1.54,1.54,0,0,1,.28.93,1.46,1.46,0,0,1-.48,1.14,1.8,1.8,0,0,1-1.25.43,2.82,2.82,0,0,1-.86-.12,3.63,3.63,0,0,1-.81-.4V50a2.46,2.46,0,0,0,1.57.73,1,1,0,0,0,.6-.17.53.53,0,0,0,.23-.45.71.71,0,0,0-.39-.62L29.43,49a2.49,2.49,0,0,1-.92-.69,1.44,1.44,0,0,1-.3-.91,1.36,1.36,0,0,1,.49-1.1A1.94,1.94,0,0,1,30,45.91Z"/><path class="cls-1" d="M35.91,46v.83H33.55v1.44h2.25v.83H33.55v1.56H36v.83H32.55V46Z"/><path class="cls-1" d="M41.74,45.91a4.39,4.39,0,0,1,1.91.45v1a3.93,3.93,0,0,0-1.86-.51,2.1,2.1,0,0,0-1,.24,1.67,1.67,0,0,0-.69.69,2.07,2.07,0,0,0-.24,1,1.79,1.79,0,0,0,.53,1.35,1.93,1.93,0,0,0,1.4.51,2.35,2.35,0,0,0,.46,0,3,3,0,0,0,.52-.16V49.5h-.86v-.83h1.86v2.26a3,3,0,0,1-.92.44,3.94,3.94,0,0,1-1.12.16,3.11,3.11,0,0,1-1.49-.36,2.59,2.59,0,0,1-1-1,2.79,2.79,0,0,1-.37-1.43,2.84,2.84,0,0,1,.38-1.45,2.62,2.62,0,0,1,1.05-1A3.15,3.15,0,0,1,41.74,45.91Z"/><path class="cls-1" d="M46.69,46a1.69,1.69,0,0,1,1.19.43,1.57,1.57,0,0,1,.23,1.93,1.53,1.53,0,0,1-.68.55,1.53,1.53,0,0,1,.44.38,5,5,0,0,1,.48.82q.48,1,.71,1.37H48c-.08-.12-.18-.31-.31-.58A12.73,12.73,0,0,0,47,49.7a1.57,1.57,0,0,0-.39-.43.74.74,0,0,0-.43-.13h-.36v2.31h-1V46Zm-.23,2.33a.88.88,0,0,0,.62-.21.73.73,0,0,0,.23-.57.69.69,0,0,0-.22-.56,1,1,0,0,0-.64-.19h-.63v1.52Z"/><path class="cls-1" d="M52.17,45.91a3,3,0,0,1,1.45.35,2.62,2.62,0,0,1,1,1,2.91,2.91,0,0,1,0,2.87,2.63,2.63,0,0,1-1,1,3.14,3.14,0,0,1-2.94,0,2.65,2.65,0,0,1-1-1,2.82,2.82,0,0,1-.37-1.42,2.87,2.87,0,0,1,.37-1.41,2.63,2.63,0,0,1,1-1A3,3,0,0,1,52.17,45.91Zm-1.83,2.81a2,2,0,0,0,.23,1,1.67,1.67,0,0,0,.65.67,1.87,1.87,0,0,0,.95.24,1.76,1.76,0,0,0,1.32-.53A1.87,1.87,0,0,0,54,48.72a2,2,0,0,0-.23-1,1.65,1.65,0,0,0-.65-.68,2,2,0,0,0-1.9,0,1.63,1.63,0,0,0-.65.67A2.08,2.08,0,0,0,50.33,48.72Z"/><path class="cls-1" d="M56.94,46v3.18a1.82,1.82,0,0,0,.14.78,1.12,1.12,0,0,0,.46.48,1.42,1.42,0,0,0,.74.19,1.6,1.6,0,0,0,.78-.18,1.1,1.1,0,0,0,.47-.49,2,2,0,0,0,.15-.85V46h1v3.25a2.22,2.22,0,0,1-.63,1.7,2.49,2.49,0,0,1-1.78.59A2.73,2.73,0,0,1,57,51.26a1.87,1.87,0,0,1-.81-.78,2.47,2.47,0,0,1-.28-1.2V46Z"/><path class="cls-1" d="M63.8,46a1.63,1.63,0,0,1,1.19.44,1.53,1.53,0,0,1,.46,1.15A1.51,1.51,0,0,1,65,48.72a1.69,1.69,0,0,1-1.22.44h-1v2.3h-1V46Zm-.25,2.35a.93.93,0,0,0,.63-.19.72.72,0,0,0,.23-.57q0-.76-.92-.76H62.8v1.52Z"/><path class="cls-1" d="M18.57,8.17H23.1L28,16.68l-2.2,3.8Zm18.91,8.43,5-8.45,4.39.07L39.69,20.54ZM36.91,0,32.58,7.62,28.15,0H4.32l21.5,37,6.91-12.1L39.85,37,61.13,0Z"/></g></g></svg>