<svg xmlns="http://www.w3.org/2000/svg" height="24" viewBox="0 96 960 960" width="24"><path d="M477.89 879.5q-115.2 0-200.795-74.75Q191.5 730 177.5 615.5H203Q219.5 718 296.482 786t181.29 68Q594 854 675 772.987q81-81.013 81-196.982t-81.063-196.987Q593.873 298 477.5 298q-59.27 0-111.635 24T272.5 388.147H367V413.5H228.5V275H254v95.5q44.5-46 101.959-72t121.457-26q63.084 0 118.291 23.852 55.207 23.853 96.5 65Q733.5 402.5 757.5 457.684q24 55.184 24 118.25t-24 118.316q-24 55.25-65.25 96.5t-96.536 65Q540.427 879.5 477.89 879.5Zm132.61-156L469 581.565V378.5h25.5v192L629 705l-18.5 18.5Z"/></svg>