<?xml version="1.0" encoding="utf-8"?>
<!-- Generator: Adobe Illustrator 26.3.1, SVG Export Plug-In . SVG Version: 6.00 Build 0)  -->
<svg version="1.1" id="레이어_1" xmlns="http://www.w3.org/2000/svg" xmlns:xlink="http://www.w3.org/1999/xlink" x="0px"
	 y="0px" viewBox="0 0 159.965 26" style="enable-background:new 0 0 159.965 26;" xml:space="preserve">
<style type="text/css">
	.st0{fill:#111111;}
	.st1{fill:#DDDDDD;}
	.st2{fill:#FFFFFF;}
</style>
<g id="그룹_15297" transform="translate(-73 -81)">
	<g id="그룹_15297-2">
		<rect id="사각형_26859" x="73" y="81" class="st0" width="42" height="26"/>
		<rect id="사각형_26860" x="115" y="81" class="st1" width="42" height="26"/>
		<path id="패스_51930" class="st2" d="M91.48,89.391v-3.964h-2.082v9.788h2.082v-4.129h2.355v-1.7L91.48,89.391z M83.242,91.091
			c0.756,1.63,2.141,2.883,3.838,3.471l1.115-1.622c-2.332-0.645-3.954-2.757-3.977-5.177v-1.471h-2.081v1.524
			c0.007,2.573-1.674,4.845-4.136,5.592l1.115,1.638c1.887-0.657,3.394-2.102,4.129-3.96L83.242,91.091z M91.48,102.074v-6.167
			H80.593v6.167H91.48z M89.429,97.563v2.836h-6.791v-2.836H89.429z M108.429,95.334v-9.906h-2.067v3.258h-3.357v1.7h3.357v4.947
			L108.429,95.334z M99.49,91.212c0.737,1.648,2.132,2.911,3.845,3.482l1.115-1.622c-2.363-0.634-3.995-2.79-3.964-5.237v-1.5
			h-2.084v1.59c0.017,2.601-1.7,4.895-4.2,5.613l1.108,1.669C97.226,94.56,98.757,93.097,99.49,91.212z M102.728,95.789
			c-3.562,0-5.745,1.194-5.738,3.245c0.007,2.051,2.177,3.232,5.738,3.225c3.561-0.007,5.752-1.167,5.752-3.225
			S106.297,95.789,102.728,95.789z M102.728,100.63c-2.348,0.007-3.687-0.567-3.674-1.6c-0.013-1.062,1.326-1.629,3.674-1.629
			c2.348,0,3.687,0.567,3.693,1.629C106.415,100.063,105.08,100.636,102.728,100.63z"/>
		<path id="패스_51931" class="st0" d="M132.928,92.023h-1.721v-6.305h-1.963v15.75h1.959v-7.737h1.721v8.541h1.992V85.427h-1.988
			V92.023z M125.528,88.93h2.764v-1.669h-7.777v1.669h3v0.8c0,3.285-1,6.233-3.515,7.644l1.286,1.583
			c1.681-1.096,2.86-2.812,3.278-4.775c0.497,1.77,1.673,3.273,3.271,4.182l1.2-1.583c-2.5-1.293-3.509-4.056-3.509-7.051
			L125.528,88.93z M149.728,85.43h-2.084v12.186h2.084v-5.738h2.368v-1.715h-2.368V85.43z M146.113,92.546
			c-2.28,0.43-4.6,0.607-6.919,0.528V88.49h5.494v-1.669h-7.558v7.941h1.372c2.626,0.097,5.254-0.083,7.842-0.536L146.113,92.546z
			 M138.924,96.336v5.619h11.463v-1.682h-9.4v-3.937H138.924z"/>
	</g>
	<path id="패스_51942" class="st0" d="M168.285,98.883c-0.864,0.027-1.716-0.214-2.438-0.69c-0.653-0.442-1.167-1.061-1.483-1.783
		c-0.324-0.741-0.489-1.541-0.484-2.35c-0.006-0.814,0.159-1.621,0.484-2.367c0.314-0.723,0.827-1.343,1.479-1.787
		c0.728-0.477,1.586-0.717,2.456-0.687c1.158-0.055,2.281,0.402,3.072,1.25c0.819,1.017,1.224,2.306,1.135,3.609v0.581h-6.542V94.8
		c-0.001,0.405,0.098,0.805,0.29,1.162c0.188,0.357,0.467,0.658,0.81,0.871c0.357,0.22,0.769,0.333,1.188,0.326
		c0.455,0.012,0.903-0.116,1.283-0.366c0.353-0.242,0.628-0.581,0.792-0.977h2.095c-0.23,0.866-0.729,1.637-1.426,2.2
		C170.223,98.616,169.263,98.923,168.285,98.883z M170.45,93.25c0.037-0.676-0.186-1.341-0.624-1.857
		c-0.41-0.4-0.967-0.614-1.54-0.59c-0.613-0.028-1.207,0.213-1.628,0.66c-0.426,0.497-0.655,1.133-0.643,1.787H170.45z
		 M177.58,98.883c-0.695,0.018-1.384-0.133-2.007-0.44c-0.525-0.259-0.97-0.656-1.285-1.15c-0.286-0.45-0.439-0.972-0.44-1.505
		v-0.106h2.095v0.106c0.005,0.375,0.164,0.732,0.44,0.986c0.339,0.311,0.791,0.47,1.25,0.44c0.389,0.017,0.772-0.094,1.091-0.317
		c0.279-0.205,0.437-0.535,0.423-0.88c0.013-0.302-0.122-0.591-0.361-0.775c-0.259-0.195-0.566-0.317-0.889-0.352l-1.109-0.211
		c-0.687-0.105-1.338-0.38-1.892-0.8c-0.563-0.453-0.869-1.154-0.819-1.875c-0.034-0.795,0.32-1.557,0.951-2.042
		c0.708-0.516,1.571-0.777,2.447-0.739c0.653-0.018,1.302,0.119,1.892,0.4c0.494,0.234,0.914,0.6,1.215,1.056
		c0.271,0.419,0.415,0.908,0.414,1.408v0.07h-2.095v-0.053c-0.006-0.334-0.134-0.654-0.361-0.9
		c-0.296-0.304-0.712-0.459-1.135-0.423c-0.374-0.019-0.743,0.096-1.039,0.326c-0.254,0.209-0.397,0.525-0.387,0.854
		c-0.007,0.29,0.128,0.566,0.361,0.739c0.267,0.199,0.578,0.332,0.907,0.387l1.215,0.211c0.701,0.125,1.361,0.421,1.919,0.863
		c0.529,0.449,0.816,1.12,0.775,1.813c0.009,0.544-0.154,1.078-0.467,1.523c-0.326,0.454-0.771,0.809-1.287,1.026
		C178.827,98.769,178.206,98.892,177.58,98.883z M185.907,91.119v4.56c-0.008,0.312,0.013,0.625,0.062,0.933
		c0.041,0.2,0.166,0.373,0.343,0.475c0.279,0.138,0.59,0.198,0.9,0.176c0.272-0.006,0.543-0.036,0.81-0.088v1.5
		c-0.198,0.044-0.398,0.073-0.6,0.088c-0.322,0.035-0.645,0.053-0.968,0.053c-0.62,0.042-1.241-0.079-1.8-0.352
		c-0.353-0.192-0.616-0.515-0.731-0.9c-0.111-0.467-0.162-0.946-0.15-1.426v-5.017h-1.62v-1.672h1.62v-3.028h2.13v3.028h2.113v1.672
		L185.907,91.119z M191.4,98.883c-0.335,0.007-0.658-0.127-0.889-0.37c-0.238-0.238-0.368-0.563-0.361-0.9
		c-0.007-0.337,0.123-0.662,0.361-0.9c0.231-0.243,0.554-0.377,0.889-0.37c0.341-0.01,0.67,0.125,0.907,0.37
		c0.238,0.238,0.368,0.563,0.361,0.9c0.007,0.338-0.127,0.664-0.37,0.9C192.063,98.755,191.738,98.889,191.4,98.883z M202.35,96.876
		v1.867h-6.986v-1.866h2.588v-7.922h-0.07l-2.553,2.359v-2.553l2.57-2.341h2.095v10.457L202.35,96.876z M209.99,93.214l-0.07-0.035
		l-0.264,0.282c-0.275,0.273-0.597,0.494-0.951,0.651c-0.43,0.177-0.892,0.261-1.356,0.246c-0.686,0.014-1.363-0.163-1.954-0.511
		c-0.565-0.342-1.022-0.836-1.32-1.426c-0.325-0.644-0.488-1.356-0.475-2.077c-0.023-0.795,0.182-1.58,0.59-2.262
		c0.379-0.615,0.925-1.109,1.574-1.425c0.686-0.329,1.439-0.495,2.2-0.484c0.737-0.003,1.465,0.159,2.13,0.475
		c0.672,0.32,1.238,0.827,1.628,1.461c0.437,0.733,0.654,1.576,0.625,2.429c0.011,0.92-0.172,1.832-0.537,2.676
		c-0.433,0.941-0.948,1.843-1.54,2.693l-1.864,2.836h-2.289L209.99,93.214z M208.018,92.814c0.647,0.035,1.273-0.235,1.69-0.731
		c0.4-0.488,0.613-1.103,0.6-1.734c0.011-0.626-0.204-1.236-0.607-1.716c-0.422-0.495-1.05-0.766-1.7-0.731
		c-0.454-0.014-0.902,0.108-1.285,0.352c-0.342,0.224-0.616,0.538-0.792,0.907c-0.175,0.365-0.265,0.766-0.264,1.171
		c-0.002,0.415,0.088,0.825,0.264,1.2c0.176,0.376,0.453,0.696,0.8,0.924c0.386,0.246,0.837,0.37,1.295,0.354L208.018,92.814z
		 M218.282,98.901c-0.757,0.007-1.506-0.156-2.192-0.475c-0.676-0.318-1.245-0.825-1.637-1.461
		c-0.438-0.739-0.655-1.588-0.625-2.447c-0.01-0.915,0.176-1.821,0.546-2.658c0.432-0.929,0.945-1.818,1.532-2.658l1.831-2.782
		h2.113l-3.662,5.457l0.07,0.035l0.264-0.282c0.612-0.605,1.446-0.931,2.306-0.9c0.689-0.013,1.368,0.164,1.963,0.511
		c0.566,0.337,1.024,0.829,1.32,1.417c0.32,0.642,0.48,1.352,0.467,2.069c0.024,0.799-0.177,1.59-0.581,2.28
		c-0.371,0.613-0.912,1.106-1.558,1.417C219.766,98.746,219.028,98.91,218.282,98.901z M218.176,97.176
		c0.66,0.039,1.301-0.231,1.734-0.731c0.401-0.475,0.616-1.079,0.607-1.7c0.001-0.408-0.089-0.811-0.264-1.18
		c-0.175-0.374-0.449-0.694-0.792-0.924c-0.381-0.249-0.83-0.375-1.285-0.361c-0.648-0.035-1.275,0.232-1.7,0.722
		c-0.405,0.482-0.621,1.095-0.607,1.725c-0.01,0.628,0.209,1.238,0.616,1.716c0.42,0.493,1.045,0.764,1.692,0.733H218.176z
		 M228.634,98.848c-0.766,0.019-1.525-0.153-2.209-0.5c-0.594-0.303-1.102-0.75-1.479-1.3c-0.357-0.526-0.59-1.126-0.682-1.755
		h2.148c0.107,0.5,0.395,0.942,0.81,1.241c0.404,0.277,0.883,0.422,1.373,0.414c0.627,0.032,1.234-0.226,1.646-0.7
		c0.407-0.504,0.617-1.139,0.59-1.787c0.039-0.659-0.186-1.307-0.625-1.8c-0.432-0.436-1.028-0.67-1.642-0.643
		c-0.887-0.05-1.702,0.486-2.007,1.32l-2.13-0.07l0.334-6.848h7.429v1.954h-5.686l-0.176,3.327h0.088
		c0.244-0.322,0.545-0.597,0.889-0.81c0.545-0.303,1.165-0.442,1.787-0.4c1.051-0.052,2.075,0.337,2.826,1.074
		c0.724,0.787,1.102,1.832,1.047,2.9c0.009,0.76-0.162,1.511-0.5,2.192c-0.333,0.661-0.846,1.213-1.481,1.593
		C230.272,98.665,229.458,98.872,228.634,98.848z"/>
</g>
</svg>
