<svg xmlns="http://www.w3.org/2000/svg" height="24" viewBox="0 96 960 960" width="24"><path d="m775.5 887.5-247.766-248Q498 665.5 459 679.25 420 693 383.158 693q-91.362 0-154.01-62.814-62.648-62.815-62.648-153.5Q166.5 386 229.041 323q62.542-63 153.5-63 90.959 0 153.959 62.891t63 153.688q0 40.421-15 79.421-15 39-38.5 65.713L794 869l-18.5 18.5ZM383 667.5q80.5 0 135.75-55.059t55.25-136q0-80.941-55.25-135.941t-136-55Q302 285.5 247 340.559t-55 136q0 80.941 55.042 135.941 55.041 55 135.958 55Z"/></svg>