<svg xmlns="http://www.w3.org/2000/svg" height="24" viewBox="0 96 960 960" width="24"><path d="m419 919-14-110.5q-16-4-42-18T314 758l-101 43-61.5-108 88-66q-2.5-12-3.75-24.5T234.5 577q0-10.5 1.5-23.25l3.5-29.75-88-66L213 352.5 314 395q19.5-16.5 43-30.25t47-21.25l15-111h122.5l14 111.5q26 9 45.75 20.75T642 395l105.5-42.5L809 458l-93.5 70q3.5 14 4.25 25t.75 23q0 10.5-1 22t-4 28l91 67L745 801l-103-44.5q-20.5 18-41 30.5t-45.5 20.5l-14 111.5H419Zm58-257.5q36 0 60.75-24.75T562.5 576q0-36-24.75-60.75T477 490.5q-36 0-60.75 24.75T391.5 576q0 36 24.75 60.75T477 661.5Z"/></svg>