<svg xmlns="http://www.w3.org/2000/svg" height="24" viewBox="0 96 960 960" width="24"><path d="M274 922.5q-24.969 0-41.234-16.266Q216.5 889.969 216.5 865V452.257q0-24.195 16.266-40.726Q249.031 395 274 395h73.5v-26q0-55 38.584-93.75t94-38.75q55.416 0 94.166 38.869Q613 314.237 613 369v26h73.708q24.23 0 40.761 16.531Q744 428.062 744 452.257V865q0 24.969-16.531 41.234-16.531 16.266-40.726 16.266H274Zm86-382q5.5 0 9.25-3.5t3.75-9V420.5h-25.5V528q0 5.5 3.5 9t9 3.5ZM373 395h214.5v-26q0-45-30.916-76t-76.5-31q-45.584 0-76.334 31.088Q373 324.175 373 369v26Zm227 145.5q5.5 0 9.25-3.5t3.75-9V420.5h-25.5V528q0 5.5 3.5 9t9 3.5Z"/></svg>