<svg width="130" height="37" viewBox="0 0 130 37" fill="none" xmlns="http://www.w3.org/2000/svg">
    <path fill-rule="evenodd" clip-rule="evenodd" d="M36.2851 10.038C35.9479 9.4818 34.853 9.93423 33.6041 10.7644C29.1954 13.645 23.9832 10.3161 22.0682 8.55618C20.4113 7.02039 19.05 9.78896 19.2415 10.8889C19.3554 11.5576 20.0337 11.471 20.8671 11.3646C21.9528 11.226 23.3016 11.0538 24.0082 12.4745C25.0448 14.5997 22.8675 16.5257 20.6528 16.26C19.1957 16.0857 15.8736 14.0227 17.7844 8.86333C19.5704 4.03598 25.9482 3.01904 29.2786 5.50951C29.7042 5.825 30.1035 6.13122 30.4813 6.42099C31.8185 7.44647 32.8869 8.26582 33.8996 8.56033C34.4551 8.72187 34.9002 8.72398 35.343 8.72608C35.9356 8.72889 36.524 8.73168 37.3675 9.11653C38.0419 9.42369 38.2334 10.5153 36.8554 11.6485C33.7331 14.2178 31.5891 18.9829 32.0054 22.8556C32.4134 26.6536 35.4067 30.7338 41.0892 30.5968C44.0542 30.4475 46.8448 29.1544 48.871 26.991C50.8971 24.8275 52 21.9632 51.9465 19.0037C51.9465 11.2127 49.2405 6.96643 48.2456 5.7212C47.7876 5.12349 47.2964 4.73746 46.955 5.01972C46.4678 5.35761 45.907 5.57528 45.3189 5.65478H45.2939H45.0192C44.2684 5.65478 43.5483 5.35741 43.0174 4.82809C42.4865 4.29876 42.1883 3.58084 42.1883 2.83226C42.1883 2.08368 42.4865 1.36576 43.0174 0.836431C43.5483 0.307104 44.2684 0.00973245 45.0192 0.00973245C45.5278 -0.00858075 46.0326 0.104369 46.4846 0.337644C46.8327 0.535353 47.1508 0.781317 47.4296 1.06818C47.8281 1.53656 48.194 2.03166 48.5245 2.55001L48.5341 2.56515C50.2412 5.24086 53.9365 11.0331 53.9365 19.2444C53.9365 29.8621 47.8209 37.0014 38.7205 37.0014C36.2621 37.0013 33.8531 36.3134 31.7674 35.0161C29.6816 33.7188 28.0027 31.8641 26.9215 29.6628C25.8404 27.4614 25.4003 25.0018 25.6514 22.5636C25.9025 20.1253 26.8347 17.8062 28.3419 15.8698C30.1654 13.3918 33.1628 11.8394 35.0028 10.9636C35.0538 10.9392 35.1283 10.9077 35.2161 10.8705C35.6663 10.6801 36.4697 10.3401 36.2851 10.038ZM54.02 9.73918L63.0539 4.01526V33.9423L64.7524 35.7189H54.02L55.7269 33.9423V10.7976L54.02 9.73918ZM9.02969 9.17886L10.7324 7.61816H0L1.70269 9.17886V33.9424L0 35.7189H10.7324L9.02969 33.9424V9.17886ZM17.1185 14.9359C17.0988 14.8972 17.0766 14.8597 17.0519 14.8239L9.8623 21.8802C9.8623 21.8802 10.466 23.5405 11.1778 25.0638C12.1987 27.2441 13.4151 29.328 14.8122 31.29C17.972 35.6732 23.3215 36.3041 25.6112 36.3041C27.2134 36.2501 28.8 35.9706 30.3238 35.474C30.3238 35.474 26.4521 33.2574 23.8294 30.4681C21.5522 28.0441 17.9678 22.1043 16.2901 18.7463L18.5756 16.4261C17.9868 16.0411 17.4896 15.5325 17.1185 14.9359ZM89.7058 10.7976V4.01526L80.6761 9.73918L82.3788 10.7976V33.9423L80.9675 34.98C79.652 34.1831 76.9335 32.3941 75.0102 30.1444C73.1004 27.8105 71.3903 25.321 69.8979 22.702L72.9536 19.8961L78.3198 14.9816H67.6082L71.9212 18.9331L63.7324 26.4336C64.4897 27.9294 65.3234 29.3854 66.2303 30.7961C69.39 35.6359 74.7396 36.3498 77.0334 36.3498C78.3288 36.3167 79.6141 36.1115 80.8551 35.7396H91.4085L89.7058 33.9631V10.7976ZM96.5542 22.702C98.0465 25.321 99.7566 27.8105 101.666 30.1443C104.289 33.2159 108.398 35.4158 108.398 35.4158C106.884 35.9534 105.296 36.2558 103.69 36.3124C101.396 36.3124 96.0463 35.6192 92.8865 30.796C91.9781 29.3863 91.1443 27.9302 90.3887 26.4336L98.5816 18.9331L94.2645 14.9816H104.997L99.6348 19.8961L96.5542 22.702ZM129.958 33.2077C129.958 33.4278 129.871 33.639 129.715 33.7947C129.558 33.9504 129.347 34.0378 129.126 34.0378C128.999 34.0325 128.874 34.002 128.758 33.948C128.643 33.894 128.54 33.8176 128.454 33.7233C128.369 33.6289 128.304 33.5186 128.262 33.3987C128.22 33.2788 128.202 33.1518 128.21 33.025V23.6941C128.21 23.6187 128.21 23.5407 128.21 23.4604V23.453C128.218 20.4869 128.234 14.359 118.968 14.359C109.443 14.359 108.448 21.6436 108.448 21.6436H117.003L113.223 18.1819C113.827 16.8619 115.246 15.5337 117.802 15.5337C120.575 15.5337 120.883 17.4804 120.883 18.0947V23.0673C120.883 23.0673 113.685 23.6028 110.842 24.7276C107.998 25.8525 106.966 28.675 106.966 30.9995C106.966 33.3239 109.514 36.3125 113.552 36.3125C117.59 36.3125 120.925 33.0831 120.925 33.0831C120.925 33.0831 121.757 36.3125 125.225 36.3125C130.729 36.3498 129.958 33.2077 129.958 33.2077ZM120.866 30.6508C120.866 30.6508 116.603 31.979 116.603 28.0317C116.603 24.0843 120.866 23.8186 120.866 23.8186V30.6508Z" fill="#151515"></path>
</svg>