<?xml version="1.0" encoding="utf-8"?>
<!-- Generator: Adobe Illustrator 25.2.1, SVG Export Plug-In . SVG Version: 6.00 Build 0)  -->
<svg version="1.1" id="Layer_1" xmlns="http://www.w3.org/2000/svg" xmlns:xlink="http://www.w3.org/1999/xlink" x="0px" y="0px"
	 width="100px" height="140px" viewBox="0 0 100 140" style="enable-background:new 0 0 100 140;" xml:space="preserve">
<path id="패스_179" style="fill:none;stroke:#FFFFFF;stroke-miterlimit:10;" d="M41,128.8c0,0-10.5-29.4,23.5-95"/>
<path id="패스_180" style="fill:none;stroke:#FFFFFF;stroke-miterlimit:10;" d="M62.3,38.3c0,0-3.3-8.5,2.1-15.2l0.5,2.1l3.7-6.6
	v2.5l3.5-5.5v2l4.4-4.3v1.8l3.3-3.5l-0.5,1.9l2.6-2.5l-1.5,3.5l1.3-0.4l-2.2,3.1l1.4,0.2l-2.5,3.4l1.6,0.4l-3,3.4h1.6l-2.6,2H77
	L72.8,31l1.9-0.2C74.7,30.7,69,37.6,62.3,38.3z"/>
<path id="패스_181" style="fill:none;stroke:#FFFFFF;stroke-miterlimit:10;" d="M64,34.8c0,0,6-11.2,9.9-13.4"/>
<path id="패스_182" style="fill:none;stroke:#FFFFFF;stroke-miterlimit:10;" d="M59.6,43.5c0,0-2.2-8.3-2.7-8.9l-0.7,0.7l-1.6-4.2
	L54,31.9l-2.2-3V30l-2.8-3.2v0.7l-3.6-2.9v1l-2.8-2.4l-0.2,0.7c0,0-3.2-2.3-4.3-2.5c1.2,1.5,2.3,3.1,3.4,4.7l-0.6,0.4l1.8,2.1
	l-0.6,0.4l2.7,3.6L44.3,33l2.9,3l-1,0.3l4.3,3l-0.8,0.4C52.7,41.7,56,43,59.6,43.5z"/>
<path id="패스_183" style="fill:none;stroke:#FFFFFF;stroke-miterlimit:10;" d="M59.6,43.5c0,0-13-15.6-15.3-16.8"/>
<path id="패스_184" style="fill:none;stroke:#FFFFFF;stroke-miterlimit:10;" d="M59.7,43.5c0,0,7.8-3.3,8.6-3.2l-0.1,1l4.2-1.3
	l-0.2,1l3.7-0.1L75,41.5l4.2,0.3l-0.6,0.5l4.4,1.1l-0.8,0.6l3.6,0.9l-0.5,0.5c0,0,3.7,1.1,4.5,2c-1.9-0.1-3.8,0-5.7,0.2v0.7
	l-2.8-0.2l0,0.7L77,48.7l0.2,0.8L73.1,49l0.3,0.9l-4.9-1.6l0.2,0.8C68.6,49.1,64.5,48,59.7,43.5z"/>
<path id="패스_185" style="fill:none;stroke:#FFFFFF;stroke-miterlimit:10;" d="M59.7,43.5c0,0,20,1,22.4,2.2"/>
<path id="패스_186" style="fill:none;stroke:#FFFFFF;stroke-miterlimit:10;" d="M53.1,57.8c0,0-3.6-7.8-4.2-8.3l-0.6,0.8l-2.2-3.8
	l-0.5,0.9L43,44.8l0.2,1.1l-3.3-2.7l0.2,0.7l-4-2.2l0.2,1l-3.2-1.8v0.7c0,0-3.5-1.7-4.7-1.6c1.5,1.3,2.9,2.6,4.2,4l-0.5,0.5l2.2,1.8
	l-0.5,0.5l3.3,3.1l-0.7,0.5l3.4,2.5l-0.9,0.4l4.7,2.1l-0.7,0.5C46.1,57.2,49.6,57.9,53.1,57.8z"/>
<path id="패스_187" style="fill:none;stroke:#FFFFFF;stroke-miterlimit:10;" d="M53.1,57.8c0,0-15.5-13-18-13.7"/>
<path id="패스_188" style="fill:none;stroke:#FFFFFF;stroke-miterlimit:10;" d="M53.3,58.1c0,0,7.8-3.3,8.6-3.2l-0.1,1l4.2-1.3
	l-0.2,1l3.7-0.1l-0.9,0.7l4.2,0.3l-0.6,0.5l4.4,1.1l-0.8,0.6l3.6,0.9l-0.5,0.5c0,0,3.7,1.1,4.5,2c-1.9-0.1-3.8,0-5.7,0.2v0.7
	l-2.8-0.2l0,0.7l-4.5,0.1l0.2,0.8l-4.1-0.5l0.3,0.9l-4.9-1.6l0.1,0.8C58.9,62.5,55.8,60.6,53.3,58.1z"/>
<path id="패스_189" style="fill:none;stroke:#FFFFFF;stroke-miterlimit:10;" d="M53.3,58.1c0,0,20,1,22.4,2.2"/>
<path id="패스_190" style="fill:none;stroke:#FFFFFF;stroke-miterlimit:10;" d="M48,72.8c0,0-5.2-6.8-5.9-7.1l-0.4,0.9l-3-3.3
	l-0.3,1l-3.2-1.9l0.4,1l-3.8-1.9l0.3,0.7l-4.4-1.3l0.4,1l-3.5-1.1l0.1,0.7c0,0-3.8-0.9-4.9-0.6c1.7,0.9,3.3,1.9,4.9,3l-0.4,0.6
	l2.5,1.2l-0.4,0.6l3.9,2.3L30,69.1l3.9,1.6l-0.8,0.6l5.1,1.1l-0.6,0.7C37.6,73.1,41.7,74.3,48,72.8z"/>
<path id="패스_191" style="fill:none;stroke:#FFFFFF;stroke-miterlimit:10;" d="M48,72.8c0,0-17.9-9.2-20.5-9.4"/>
<path id="패스_192" style="fill:none;stroke:#FFFFFF;stroke-miterlimit:10;" d="M47.9,72.7c0,0,7.8-3.3,8.6-3.2l-0.1,1l4.2-1.3
	l-0.2,1l3.7-0.1l-0.9,0.7l4.2,0.3l-0.6,0.5l4.4,1.1l-0.8,0.6L74,74l-0.5,0.5c0,0,3.7,1.1,4.5,2c-1.9-0.1-3.8,0-5.7,0.2v0.7l-2.8-0.2
	l0,0.7l-4.5,0.1l0.2,0.8l-4.1-0.5l0.4,0.9l-4.9-1.6l0.1,0.8C56.8,78.3,52.7,77.2,47.9,72.7z"/>
<path id="패스_193" style="fill:none;stroke:#FFFFFF;stroke-miterlimit:10;" d="M47.9,72.7c0,0,20,1,22.4,2.2"/>
<path id="패스_194" style="fill:none;stroke:#FFFFFF;stroke-miterlimit:10;" d="M43.5,88.7c0,0-5.6-6.5-6.3-6.7l-0.4,0.9l-3.2-3.1
	l-0.2,1l-3.3-1.7l0.5,1l-3.9-1.6l0.3,0.7l-4.5-1l0.5,0.9l-3.6-0.8l0.2,0.7c0,0-3.8-0.6-4.9-0.3c1.7,0.8,3.4,1.7,5.1,2.7l-0.3,0.6
	l2.6,1.1l-0.4,0.6l4,2l-0.6,0.6l3.9,1.4l-0.8,0.7l5.1,0.7L33,89.6C33,89.7,37.2,90.7,43.5,88.7z"/>
<path id="패스_195" style="fill:none;stroke:#FFFFFF;stroke-miterlimit:10;" d="M43.5,88.7c0,0-18.4-8.1-21-8.1"/>
<path id="패스_196" style="fill:none;stroke:#FFFFFF;stroke-miterlimit:10;" d="M43.5,88.7c0,0,7.8-3.3,8.6-3.2l-0.1,1l4.2-1.3
	l-0.2,1l3.7-0.1l-0.9,0.7l4.2,0.3l-0.6,0.5l4.4,1.1L66,89.1l3.6,0.9l-0.5,0.5c0,0,3.7,1.1,4.5,2c-1.9-0.1-3.8,0-5.7,0.2v0.7
	l-2.8-0.2l0,0.7l-4.5,0.1l0.2,0.8l-4.1-0.5l0.4,0.9l-4.9-1.6l0.1,0.8C52.3,94.2,48.2,93.2,43.5,88.7z"/>
<path id="패스_197" style="fill:none;stroke:#FFFFFF;stroke-miterlimit:10;" d="M43.5,88.7c0,0,20,1,22.4,2.2"/>
<path id="패스_198" style="fill:none;stroke:#FFFFFF;stroke-miterlimit:10;" d="M40.4,105.8c0,0-6.1-6-6.8-6.2l-0.3,1l-3.4-2.8
	l-0.1,1l-3.4-1.5l0.5,1l-4-1.3l0.4,0.6L18.8,97l0.5,0.9l-3.6-0.5l0.3,0.7c0,0-3.9-0.3-4.9,0.2c1.8,0.6,3.6,1.4,5.3,2.2L16,101
	l2.7,0.9l-0.3,0.6l4.2,1.7l-0.5,0.7l4,1l-0.7,0.7l5.2,0.3l-0.5,0.7C30,107.7,34.3,108.2,40.4,105.8z"/>
<path id="패스_199" style="fill:none;stroke:#FFFFFF;stroke-miterlimit:10;" d="M40.4,105.8c0,0-19-6.5-21.6-6.3"/>
<path id="패스_200" style="fill:none;stroke:#FFFFFF;stroke-miterlimit:10;" d="M40.4,105.8c0,0,7.8-3.3,8.6-3.2l-0.1,1l4.2-1.3
	l-0.3,1l3.7-0.1l-0.9,0.7l4.2,0.3l-0.6,0.5l4.4,1.1l-0.8,0.6l3.6,0.9l-0.5,0.5c0,0,3.7,1.1,4.5,2c-1.9-0.1-3.8,0-5.7,0.2v0.7
	l-2.8-0.2l0.1,0.7l-4.5,0.1l0.3,0.8l-4.1-0.5l0.4,0.9l-4.9-1.6l0.2,0.8C49.2,111.4,45.1,110.3,40.4,105.8z"/>
<path id="패스_201" style="fill:none;stroke:#FFFFFF;stroke-miterlimit:10;" d="M40.4,105.8c0,0,20,1,22.4,2.2"/>
</svg>
