<?xml version="1.0" encoding="utf-8"?>
<!-- Generator: Adobe Illustrator 25.2.1, SVG Export Plug-In . SVG Version: 6.00 Build 0)  -->
<svg version="1.1" id="Layer_1" xmlns="http://www.w3.org/2000/svg" xmlns:xlink="http://www.w3.org/1999/xlink" x="0px" y="0px"
	 width="100px" height="140px" viewBox="0 0 100 140" style="enable-background:new 0 0 100 140;" xml:space="preserve">
<path id="패스_43" style="fill:none;stroke:#FFFFFF;stroke-linecap:round;stroke-miterlimit:10;" d="M31.8,128.8
	c0,0,10.4-12.3,12-42.1c0.4-7.7,1.3-15.3,2.8-22.8c0,0,0.8-2.9,1.3-5.8c0,0-1.4-6.4-1.1-9.4c0.4-2.9,0.9-8.3,0.5-10"/>
<path id="패스_44" style="fill:none;stroke:#FFFFFF;stroke-linecap:round;stroke-miterlimit:10;" d="M47.9,58.1
	c-2.2-3.1-3.7-6.7-4.3-10.5c-0.7-5.8,2.2-20.1,3.1-22.8s1.5-4.1,3.1-0.6c1.6,3.6,3.1,11,2.7,14.4C52.1,42,50.9,53.8,47.9,58.1z"/>
<path id="패스_45" style="fill:none;stroke:#FFFFFF;stroke-linecap:round;stroke-miterlimit:10;" d="M28.9,70.7
	c-0.3,1.5-0.6,3-0.7,4.6c-0.1,1.5-0.4,2.9-0.9,4.3c-0.4,3.2-0.4,6.4,0,9.5c0.6,2.8,4.2,12.1,7.1,12.2s2.5-14.2,2.5-14.2
	s0.2-2.8-1.7-7.4S33,68.3,30.2,69C29.5,69.3,29,70,28.9,70.7z"/>
<path id="패스_46" style="fill:none;stroke:#FFFFFF;stroke-linecap:round;stroke-miterlimit:10;" d="M39.3,113.2
	c0,0-2-4.8-4.9-11.9s-2.7-16.8-2.7-16.8"/>
<path id="패스_47" style="fill:none;stroke:#FFFFFF;stroke-linecap:round;stroke-miterlimit:10;" d="M48.8,92.8
	c1-1.8,1.1-4.1,2.8-6.4c0.9-1.2,7.2-7.2,11.1-9c3.9-1.8,4.7-0.9,4.4,1.6c-0.5,3.5-3.7,11.4-5.3,12.8c-1.6,1.5-3.1,3.1-4.4,4.8
	c-1.1,1.3-2.6,2.2-4.3,2.5c-1.2,0.1-2.8,3.5-5,2.1C48.1,101.3,44.9,99.7,48.8,92.8z"/>
<path id="패스_48" style="fill:none;stroke:#FFFFFF;stroke-linecap:round;stroke-miterlimit:10;" d="M39.7,112
	c3.2-3.3,6-6.9,8.4-10.7c3.8-6.1,10.7-16.2,11.6-16.8"/>
<path id="패스_49" style="fill:none;stroke:#FFFFFF;stroke-linecap:round;stroke-miterlimit:10;" d="M50.1,80.4
	c0,0-1.6-4.1,2.9-9.4c2.6-3,4.3-5.9,7.6-6.5s5.2-3.9,6.8-4.4s2.9,0,1.5,3.4c-1.4,3.4-3,5-3.4,6.1c-1,3-7.1,10.1-9.3,10.4
	S53.2,83.2,50.1,80.4z"/>
<path id="패스_50" style="fill:none;stroke:#FFFFFF;stroke-linecap:round;stroke-miterlimit:10;" d="M43.6,89.6
	c0,0,6.2-10.4,10.7-14.4c4.5-3.9,9.1-8.3,9.2-8.8"/>
<path id="패스_51" style="fill:none;stroke:#FFFFFF;stroke-linecap:round;stroke-miterlimit:10;" d="M33.5,44.8
	c0,0-1.8,16.3,1.7,22.3s5.9,8.3,7.1,8.1c1.2-0.2,1.8-10.9,1.1-14.5C42.9,57,39.9,49.9,39,49.2c-1.8-1.2-2.6-3.6-3-4.3
	C35.5,44.1,33.8,42.2,33.5,44.8z"/>
<path id="패스_52" style="fill:none;stroke:#FFFFFF;stroke-linecap:round;stroke-miterlimit:10;" d="M44.1,81.6
	c0,0-0.8-3.2-1.8-6.4s-5.5-15.7-5.5-19.1"/>
<path id="패스_53" style="fill:none;stroke:#FFFFFF;stroke-linecap:round;stroke-miterlimit:10;" d="M53,55.8
	c0,0-0.1-7.6,3.3-12.8s4.6-6.9,6.8-7.8c2.3-1,6.7-4,7-4.6s2.8-1.5,2.1,1.7c-0.6,3.2-3.8,7-4.4,9.2s-1.1,4.7-3.1,6.5
	c-2.1,1.9-4,3.6-4.5,4.7S56.5,57.1,53,55.8z"/>
<path id="패스_54" style="fill:none;stroke:#FFFFFF;stroke-linecap:round;stroke-miterlimit:10;" d="M45.9,67.8c0,0,4-7.4,7.1-12
	s8.2-9.5,8.8-11.8"/>
<path id="패스_55" style="fill:none;stroke:#FFFFFF;stroke-linecap:round;stroke-miterlimit:10;" d="M51.2,48
	c0,0,13.3-19.4,13.6-27s1.4-10.9-1.7-9.3c-3,1.5-6,9.6-7.1,11.3c-2,2.4-3.4,5.3-4,8.4"/>
<path id="패스_56" style="fill:none;stroke:#FFFFFF;stroke-linecap:round;stroke-miterlimit:10;" d="M45.7,68.8
	C51.5,56.1,51.2,48,51.2,48s1.4-8.2,2.7-10.7c1.2-2.4,4.2-7.6,5-11.1"/>
</svg>
