<?xml version="1.0" encoding="utf-8"?>
<!-- Generator: Adobe Illustrator 25.2.1, SVG Export Plug-In . SVG Version: 6.00 Build 0)  -->
<svg version="1.1" id="Layer_1" xmlns="http://www.w3.org/2000/svg" xmlns:xlink="http://www.w3.org/1999/xlink" x="0px" y="0px"
	 width="100px" height="140px" viewBox="0 0 100 140" style="enable-background:new 0 0 100 140;" xml:space="preserve">
<path id="패스_57" style="fill:none;stroke:#FFFFFF;stroke-miterlimit:10;" d="M31.9,68c-1.1,1-1.9,2.3-2.3,3.7
	c-0.9,3.7,2.2,3.8,2.6,2c0-0.2,0-0.4,0.1-0.5c0.1-1.3,0.1-2.6,0-3.9c-0.2-0.7-0.9-3.2-0.2-3.4c0.6-0.3,1.5,0.2,1.7,1.3
	c0,0-0.6-3.4,0.6-3.4s1.9,2,1.9,2.8c0,0-0.3-3.2,0.4-3.2s1.6,0.4,1.3,3.7c-0.3,3.3-0.2,2.8-0.2,2.8L38,70c1.4-0.9,2.6-1.9,2.8-3.1
	c0.6-3.3,2.3-5.6,2.9-4.7c0.4,0.6,0.5,1.3,0.3,2c0,0,1.9-3,2.8-2.5c0.9,0.4-0.1,3.4-0.8,4.2c0,0,1.9-1.5,2.6-0.9s-0.6,3.4-2.5,4
	s-3.1,1.6-2.9,2s3.8-1.3,4.6-0.5c0.7,0.8,0.7,2,0,2.7c-0.3,0.3-0.6,0.5-1,0.5c-1.4,0.3-2.9,0.3-4.3,0.2c0,0,4.9-0.3,4.7,0.6
	c-0.1,0.9-0.9,1.6-2.8,1.5c0,0,1.4,0.4,0.8,1.2c-0.6,0.9-2.9,1.1-4.8,1c0,0,2.3,1.1,2,2s-3.5,0.1-5.4-0.1s-5,1.5-5,6.9
	c0,0,0.3,4.5,3.2,2.5c0,0,13.2-9.1,15.9-10.7c2.6-1.6,5.7-5.1,5.2-6.8s-4.1-1.5-4-2.6s0.6-1.4,1.8-1.4c0,0-2.7-0.4-2.4-1.8
	s1.7-0.6,1.7-0.6S49.3,64,50,62.2s4.4-0.3,5.4,0.4s1.4-0.2,1.2-0.5c-2.1-1.1-4.2-2-6.5-2.7c-1-0.2-3.5-1.1-3.6-1.9s1.4-1.1,2-0.9
	c0,0-2.9-2-2.6-2.9s2.8,0.2,3.6,0.7c0,0-0.6-1.2,0.1-1.4s3,2.2,3.6,1.8c0.7-0.4-1.7-2.7-3.9-3.3s-1.1-2.2,0-2c0,0-1.2-1.1-0.9-1.9
	s2.2-0.5,3.9,1.4c0,0-3.7-4-3.5-5.4c0.4-1.4,1.9-0.4,2.3,0.4c0,0-1-2.6,0-2.7c1.1-0.1,2,0.7,2.2,1.8c0,0,0-1.4,0.8-1.4
	c1.2,0.6,2.1,1.7,2.2,3.1c0.4,2.4,0.6,2.2,0.9,2.1c0.4-0.1,0.3-3.1,1.2-3.1s1.7,0.5,1.6,2.6c0,0,0,0.7,0.7,0.4s0.8,0.4,0.5,1.9
	s-1.1,5.3-0.1,5.5c0,0,0.8-0.1,0.7-3s1.1-3.4,1.9-2.8c0.7,0.8,1.1,1.8,1.1,2.9c0,0,1-2.9,1.8-2.6s0.9,3.2,0,4.5
	c0.6-0.5,1.4-0.5,1.9,0c0.9,0.8-1.8,4.7-4,6.1c0,0,4.1-2.8,5.1-2.2s-1.3,2.9-2.6,3.8c0,0,2.5-0.6,2.3,0.3s-0.4,1.5-2.3,2.2
	c0,0,1.4,0.3,0.9,1s-2.7,0.5-3.8,1.7s-2.7,4.2-0.9,4.2c3.6,0,3.7-5.3,3.7-5.3"/>
<path id="패스_58" style="fill:none;stroke:#FFFFFF;stroke-miterlimit:10;" d="M38,64.2c1.1-0.1,2.9-0.8,2.8-1.6s-2.6-0.4-2.6-0.4
	c0.7-0.4,2.3-1.1,1.9-2s-2-0.1-3,0.4s-2.9,1-2.9,0.4s3.2-1.7,3.4-3.3s-1.3-1.4-1.8-0.9c-0.4,0.4-1.5,0.7-1.5-0.2s1.4-3.4,0-3.9
	s-2.8,3.5-3.2,3.1c-0.4-0.5-0.4-2.5-1.8-2.2c-1.3,0.4-0.8,3.5-1.1,5.7c-0.4,2.2-1.8,3.1-2.8,3.1s-1.3-1.8,0.4-3.8s0.9-3.6-1-4.3
	c-1.8-0.8-3,2.7-3.5,2.6s0-1.7-0.4-2.5c-0.5-0.7-1.8,0.7-2.9-0.1s-1-1.8-2.5-1.5c-1.5,0.3,0,1.9-1.3,2s-3.9-1.5-4.2-0.4
	s1.9,1.9,1.5,2s-3.7-0.8-4.2,0s1.8,2.1,1.8,2.1s-3.6,0-2.9,1.3s7.2,1.4,6.8,2c-0.4,0.7-4.6,0.4-4.6,0.4s-4.2-0.9-4.6,0.3
	s1.3,1.7,1.3,1.7c-3.4,0-4.3,0.8-4.4,1.9c0,1,4,0.4,4,0.4c-2.2,0.7-2,1.7-1.1,2s5.2-2.4,5.1-1.2s6.4,0.3,6.4,0.3
	c10,0.4,10.9,7.8,11.8,9.6s-0.1,3-1.1,2.7s-1.9-2-3.4-5.3s-3.7-3.5-4.4-3.3s0.4,2.3,0.3,2.3s-0.5-0.5-0.5-0.5
	c-0.6-1.5-3.1-4-3.6-3.7s0.4,1.9,0.1,2c-0.2,0-0.5-0.4-0.5-0.4c-0.4-0.7-1.5-1.9-2.2-1.5s0.4,2.8,0.4,2.8s-0.9-0.5-1.1,0
	s0.4,2.1,1.8,3.3s2,1.8,1.8,2.1c-0.2,0.3-0.6,0-1.3-0.3s-3.3-3.3-4.7-3.9s-1.1,0.9-1.1,0.9c-1.8-0.4-2.9-0.1-2.9,0.7
	s0.6,0.1,2.3,1.4c1.8,1.3,0.6,1.5,0.6,1.5c-1.3-0.5-5.7-1-5.8,0.3c-0.2,1.1,1.7,1.4,1.7,1.4C2.2,80,0.5,81.3,1.1,82s3.4,0,3.4,0
	s-1.8,0.6-1.3,1.8c0.5,0.7,1.4,0.9,2.1,0.5c0,0,3.2-3.4,4.4-2.7s-0.5,1.8-0.5,1.8s-3,2.7-2.5,3.8C7.3,88.3,9.3,87,9.3,87
	c-0.3,0.6-0.3,1.2,0,1.8c0.5,0.8,1.2-0.3,1.2-0.3s1.2-2.7,2.8-3.4s1.4,0.9,1.4,0.9s-2.8,2.4-2.9,4s2-0.7,2-0.7
	c-0.4,1.7,1.4,1.8,1.9,0.5c0,0,1.7-2.3,3.2-2.7s0.7,1.3,0.3,2.1s0.5,1.6,1.3,0.8c0.9-0.8,1.8-2.5,2.2-2c0.6,0.4,1.4,0.2,1.8-0.4
	c0,0,0.1-0.1,0.1-0.1c0.3-0.7,0.6,2.9,3.2,1.9s2.6,5,2.6,5c0,0.7,0.3,1.3,0.8,1.8c0.7,0.5,1.8-0.4,1.8-0.4l1.5-1.1l16-10.8
	c0,0,6.7-3.7,8-2.7s-1.8,2-1.3,3.1s2.1,0.2,2.1,0.2c-0.8,0.3-1.3,1-1.5,1.8c-0.4,1.3,1.3,0.9,1.3,0.9s-1.2,3.2,0.9,3.1
	s1.1-2.8,2.4-4.3s1.7,0.2,1.8,1s-1.3,3-1.3,4.5s1.5,0.4,1.5,0.4s-0.4,1.6,0.3,1.9s1.4-1.2,1.4-1.2c-0.2,0.7,0,2.9,1.4,3.4
	c1.3,0.4,1.4-2.5,1.4-2.5c1.1,1,1.6-1,1.6-1s0.7,1.1,1.4,0.4s-1-4.2-1.8-5.4s-0.8-3.4,1.4-2.9s2,6.5,2,8.1c-0.1,0.8,0.5,1.6,1.3,1.7
	c0,0,0,0,0,0c0.1,2.3,2.1,1.1,2.1,1.1c0,0.9,0.3,2.7,1.4,3.3s1.1-3.7,1.1-3.7s0.7,2,1.7,1.6c1-0.4,0.2-1.9,0.7-2.7s0-2.7-0.7-3.5
	s-1.7-3.2-0.8-3.4s2.3,2.7,3.2,4.3c1,1.5,1.8,0.2,1.8,0.2c0.2,0.7,2.1,3.5,3.2,3s-1-4.6-1-4.6s4.1,3.1,5.3,2.4S91.8,90,91.8,90
	c1.8,0.4,3.7,0.6,3.8,0c0.2-0.6-2.3-1.6-2.7-1.6c-0.5,0,1.7-0.5,2.1-1.6s-3.3-0.4-4.6-0.4s-1.5-0.5,0.6-1.2s1.9-1.9,1.1-2.6
	s-5.8,1.5-7,0.8s-1.5-1.1,1.9-1.4s3.6-1.8,3.6-1.8c0.7-1.6-3.8,0-3.1-1.2c0.4-0.8,1.6-2,1.8-3.2"/>
<path id="패스_59" style="fill:none;stroke:#FFFFFF;stroke-miterlimit:10;" d="M77.8,73c-3.6-0.4-7.1-0.3-8.8,0.8
	c-4.5,2.9,4.8,2.6,6.1,1.8s4-5,6.3-4s-0.9,3-0.9,3s2.7-2.4,4.1-1.8s0.2,2.4-1.8,3.8c-1.9,1.5,4.6-4.2,6-2.7c0.4,0.4,0.6,1,0.4,1.6"
	/>
<path id="패스_60" style="fill:none;stroke:#FFFFFF;stroke-miterlimit:10;" d="M65.8,49c0,0-0.9-3.2,1.3-3.3s1.9,2.6,1.9,2.6
	s-0.1-3.5,1-3.4c1.1,0,1.5,1.1,1.3,3.4c0,0,0.4-2.2,1.4-1.9c1.1,0.4,0.7,2.9,0.4,3.7c-0.4,0.9-0.3,2.2,0.5,2.2s0.2-4,1.7-4
	s1.1,2.9,0.6,4.5c0,0,0.7-1.9,1.9-1.5c1.1,0.4,0.5,2.3-1.2,3.8s-3.3,4.2-3.2,5.1s1,1.4,1.9,0.7s2-3.8,2-4.9s0.4-2.2,1.4-2.2
	s0.9,2.7,1.5,2.7s0.6-4.5,2.5-4.4c1.8,0.1,1.9,1.5,1.8,3.8c0,0-0.3,1.5,0.1,1.6s1.1-1.4,1.9-1.1s1.1,1.7-0.4,2.9l-2,1.8
	c0,0,4-3.9,5.7-3.4s0,2.2,0,2.2s3-1.5,3.9-0.7c0.8,0.8-1.3,2.1-1.3,2.1s4.7-0.2,4.9,1.1s-4,2.5-4,2.5s2.9-0.1,3.2,0.6
	s-0.7,1.1-2.1,1.4c0,0,4.7,0.1,4.8,1.4c0,1.3-3.5,1.4-4.4,0.8c0,0,1.2,1.3,0.3,1.6S85.2,68.2,84,69c-1.2,0.7,0.3,1.4,2.8,1.5
	s7.9,0.1,7.8,1.6c-0.4,0.5-1.1,0.8-1.8,0.8c0,0,5.7-0.1,5.7,1.3s-2.9,0.9-2.9,0.9s4,2.5,3.1,3.3s-3.6-0.5-4.3-1.7
	c0,0,2.6,2.7,1.4,3.3s-5.2-2.2-5.8-3.4c-0.1-0.2-0.4-0.4-0.9-0.6"/>
<path id="패스_61" style="fill:none;stroke:#FFFFFF;stroke-miterlimit:10;" d="M15.7,57.5c0,0,9.6,5.1,11.8,13.5
	s2.4,10.2,2.4,10.2"/>
<path id="패스_62" style="fill:none;stroke:#FFFFFF;stroke-miterlimit:10;" d="M11.5,79.8c0,0,11.9-1,16.4,3.2"/>
<path id="패스_63" style="fill:none;stroke:#FFFFFF;stroke-miterlimit:10;" d="M33.7,78.8c0,0,2.6-4.4,5.6-6.5"/>
<path id="패스_64" style="fill:none;stroke:#FFFFFF;stroke-miterlimit:10;" d="M57,51c0,0,5.2,21.2-1.1,26.5c0,0-1.7,1.3-3.5,2.7"
	/>
<path id="패스_65" style="fill:none;stroke:#FFFFFF;stroke-miterlimit:10;" d="M84.4,64.9c0,0-16.5,4.4-27.8,11.6"/>
<path id="패스_66" style="fill:none;stroke:#FFFFFF;stroke-miterlimit:10;" d="M82.6,85.1c0,0-9.6-8.3-21.8-7.1"/>
</svg>
