<?xml version="1.0" encoding="utf-8"?>
<!-- Generator: Adobe Illustrator 25.2.1, SVG Export Plug-In . SVG Version: 6.00 Build 0)  -->
<svg version="1.1" id="Layer_1" xmlns="http://www.w3.org/2000/svg" xmlns:xlink="http://www.w3.org/1999/xlink" x="0px" y="0px"
	 width="100px" height="140px" viewBox="0 0 100 140" style="enable-background:new 0 0 100 140;" xml:space="preserve">
<path id="패스_202" style="fill:none;stroke:#FFFFFF;stroke-miterlimit:10;" d="M8,76.1c-2.2,2.7-2.6,6.5-1,9.7
	c1.6,3.1,4.3,5.5,7.7,6.6c1.1,0.4,9.4,0.3,9.3-4.4s-3.4-8.5-3.8-9s-5.9-4.3-7.3-4.4C11.5,74.7,10.4,73.9,8,76.1z"/>
<path id="패스_203" style="fill:none;stroke:#FFFFFF;stroke-miterlimit:10;" d="M43.3,84.7c-1.4-0.1-3.6-0.4-4.2-1.1
	c-0.9-1-4.1,1.3-5.3,2c-1.2,0.6-3.9,0.4-5.6,0.7c-1.7,0.3-3.4,1.9-4.5,3.2"/>
<path id="패스_204" style="fill:none;stroke:#FFFFFF;stroke-miterlimit:10;" d="M10,74.8c1.5-0.9,3.2-1.4,5-1.7
	c2.7-0.6,5.3-1.7,7.5-3.4c0.8-0.7,3.6-4.5,8.5-5.7c2.4-0.5,4.7-1.4,6.7-2.9c0.9-0.4,2.8-1.2,7.4-1.3c3.1-0.2,6-1.8,7.8-4.3
	c0.1-0.4,4.1-4,4.6-4.9c1.1-1.5,2.6-2.7,4.2-3.6c1.6-0.7,3.7-3,4.5-3.7s6.8-5.1,9.1-4.2s2.6,2.9,3.6,3.5s3.2,0.3,3.5,1
	c0.3,1.3,0.9,2.5,1.7,3.5c1.3,1.4,4.4,5.1,1.2,9.1s-3.5,3.9-3.5,5c0,0.7-0.2,1.3-0.7,1.8c0,0,4.7-0.1,7,1.9c2.3,2,3.5,2.7,3.9,2.7
	s1.8,2.5,1.5,4.7c-0.3,2.2-5.2,9.7-5.2,9.7c-2,2.3-4.9,3.5-8,3.4"/>
<path id="패스_205" style="fill:none;stroke:#FFFFFF;stroke-miterlimit:10;" d="M21.9,70.1c0.1-1.5-0.5-2.9-1.5-4
	c-1.7-1.4-1.6-2-0.5-3.2c1.1-1.1,1.7-2.6,1.6-4.2c0.1-2.1,1.6-2.6,3.1-3.2c2-1.2,3.8-2.7,5.4-4.5c0.8-1,4.5-1.9,7-0.7
	s5.3,2.2,5.2,3.6c-0.2,1.4-1.7,4.6-1.4,6.3"/>
<path id="패스_206" style="fill:none;stroke:#FFFFFF;stroke-miterlimit:10;" d="M81.2,63.1c-1.8,0.4-3.5,0.6-5.3,0.7
	c-2.8,0.2-6-0.8-7.4,0c-1.4,0.8-2.4,1.4-3.3,1.4c0,0,2.3-2.7,2.3-5.3s-3-4-2.9-5.5"/>
<path id="패스_207" style="fill:none;stroke:#FFFFFF;stroke-miterlimit:10;" d="M43.3,84.7c0,0-6.3,4-5.8,8.7
	c0.6,5.8,12.4,3.1,12.4,3.1s14-4.2,18.5-12.5s-9-6.5-9-6.5S52.1,78.4,43.3,84.7z"/>
<path id="패스_208" style="fill:none;stroke:#FFFFFF;stroke-miterlimit:10;" d="M37.8,94.4l1.8,4.4c0,0,2.3,5.2,17.4-1.7
	s13.5-13,13.5-13l-1.4-4"/>
<path id="패스_209" style="fill:none;stroke:#FFFFFF;stroke-miterlimit:10;" d="M59.1,96c0,0,6.2,0.1,9.3-0.2s10.9-2.5,13.2-6.1
	s-1.6-4.6-4-5.2s-7.5-1.6-7.5-1.6"/>
<path id="패스_210" style="fill:none;stroke:#FFFFFF;stroke-miterlimit:10;" d="M82.3,87.8c0,0,0.9,3.7,0,4.8
	c-3,3.4-7.2,5.5-11.7,6c-6.4,0.4-10.6-0.2-12.4,0c-1.3,0.1-2.7,0-4-0.3"/>
<path id="패스_211" style="fill:none;stroke:#FFFFFF;stroke-miterlimit:10;" d="M68,64.1c0,0,2.3-2.8,1.7-5S68,55.9,68,54.7"/>
<path id="패스_212" style="fill:none;stroke:#FFFFFF;stroke-miterlimit:10;" d="M70.7,63.5c0,0,2.2-2.2,1.6-4.1
	c-0.3-1.1-0.6-2.2-0.8-3.3"/>
<path id="패스_213" style="fill:none;stroke:#FFFFFF;stroke-miterlimit:10;" d="M40.2,60.4c-1.2-0.7-2.1-2-2.4-3.4
	c-0.6-2.5-1.9-2.9-2.9-3.1"/>
<path id="패스_214" style="fill:none;stroke:#FFFFFF;stroke-miterlimit:10;" d="M38.9,60.7c0,0-2.8-0.1-3.1-1.3
	c-0.5-1.4-1.8-2.3-3.3-2.3"/>
<path id="패스_215" style="fill:none;stroke:#FFFFFF;stroke-miterlimit:10;" d="M39.1,83.6c-0.6-1.6-0.7-3.5-0.2-5.1
	c0.9-2.8-0.4-3.9-0.4-3.9"/>
<path id="패스_216" style="fill:none;stroke:#FFFFFF;stroke-miterlimit:10;" d="M41,84.4c0,0-0.9-2.8-0.5-4.3"/>
</svg>
