<?xml version="1.0" encoding="utf-8"?>
<!-- Generator: Adobe Illustrator 25.2.1, SVG Export Plug-In . SVG Version: 6.00 Build 0)  -->
<svg version="1.1" id="Layer_1" xmlns="http://www.w3.org/2000/svg" xmlns:xlink="http://www.w3.org/1999/xlink" x="0px" y="0px"
	 width="100px" height="140px" viewBox="0 0 100 140" style="enable-background:new 0 0 100 140;" xml:space="preserve">
<path id="패스_217" style="fill:none;stroke:#FFFFFF;stroke-miterlimit:10;" d="M35.9,63.2c0,0-9.1-1.8-15,4.1S10.1,75,10.5,86.1
	s4.1,14.5,10.4,17.2c5.2,2.2,5.4,2,5.1,3.8c-0.4,2-1.2,3.8-2.3,5.5c-0.6,1-0.7,2.2-0.2,3.3c0,0,0.2,0.5,0.8,0s2.6-2.4,2.7-3
	c0.1,0.9,0.8,1.7,1.6,2.1c0,0,0.2-0.1,0.2-0.6c0.3-1,0.9-1.8,1.8-2.3c1.8-0.8,2.8-2.6,2.5-4.6c0,0,0.3,3.9,2,4.9
	c1,0.5,1.9,1.3,2.6,2.3c0.1,0.3,0.3,0.1,0.3-0.3c0-0.9,0.1-1.9,0.2-2.8c0.2,0.8,0.6,1.4,1.2,2c0.7,0.9,1.2,2.1,1.4,3.3
	c0,0,0.1,0.4,0.3,0.1c0.4-1.1,0.4-2.3,0-3.5c-0.5-1-3.5-4-2.2-6.7c0,0,6.2,0.5,10.4-2.8c4.2-3.3,9.2-6.3,9.4-17.8
	C59,74.8,52,65.8,35.9,63.2z"/>
<path id="패스_218" style="fill:none;stroke:#FFFFFF;stroke-miterlimit:10;" d="M27.5,114.1c0,0-0.1,2.9,1,3.7
	c0,0,0.2,0.1,0.4-0.8s0.9-1.1,1.4-1.6c0.8-1,1.1-2.4,0.7-3.6"/>
<path id="패스_219" style="fill:none;stroke:#FFFFFF;stroke-miterlimit:10;" d="M32.5,110.6c0,0-0.2,4.6,1.4,6
	c1.6,1.3,1.5,2,2,2.1c0.5,0.1,0.4-0.8,0.5-1.2s1.4-2.2,1-3.1"/>
<path id="패스_220" style="fill:none;stroke:#FFFFFF;stroke-miterlimit:10;" d="M38.2,114.1c0,0,1.7,2.4,2.8,2.8"/>
<path id="패스_221" style="fill:none;stroke:#FFFFFF;stroke-miterlimit:10;" d="M27,112.9c0,0-0.2-3.6,0.7-5.1"/>
<path id="패스_222" style="fill:none;stroke:#FFFFFF;stroke-miterlimit:10;" d="M40.9,64.2c0,0,0.3-11.5,15.9-17.9
	S84,54.3,85,62.5c1,8.2-1,12.9-1,12.9"/>
<path id="패스_223" style="fill:none;stroke:#FFFFFF;stroke-miterlimit:10;" d="M73.9,87.1c-7.4,7.2-15.4,4.2-15.4,4.2"/>
<path id="패스_224" style="fill:none;stroke:#FFFFFF;stroke-miterlimit:10;" d="M86.3,82.3c0,0,2.9-1.2,3.1-2.7
	c0.2-0.8,0.1-1.6-0.3-2.3c-0.4,0.3-0.9,0.5-1.4,0.4c-1.2-0.1-2.4,0.1-3.6,0.4c-0.3,0.3,0.8-3.1-1.4-4.8c-0.5,1.3-1.2,2.6-2,3.7
	c-0.7,0.7-1.3,1.6-1.6,2.6c0.1,0.2-4-1-6.3,0.9c0,1.9,0.5,3.7,1.4,5.3"/>
<path id="패스_225" style="fill:none;stroke:#FFFFFF;stroke-miterlimit:10;" d="M83.2,87.3c1.2,0.5,2.5,0.6,3.8,0.3
	c2.1-0.6,1.4-0.4,1.4-0.4s0-1.1-0.1-1.8c-0.6-1.2-1.2-2.4-2-3.5"/>
<path id="패스_226" style="fill:none;stroke:#FFFFFF;stroke-miterlimit:10;" d="M68.3,82.4c2.5,0.2,4.8,1.5,6.1,3.6
	c0,0-0.6,0.4-0.7,2.3c0.1,1.1-0.4,2.2-1.1,2.9c-0.5,0.4,3.6-1.6,4.4-3c-0.1,1,0.1,1.9,0.5,2.8c0.6,0.8,2.7,3.1,2.7,3.1
	s2.1-2.8,2.8-3.9c0.4-0.9,0.5-1.8,0.3-2.8"/>
<path id="패스_227" style="fill:none;stroke:#FFFFFF;stroke-miterlimit:10;" d="M78,72.7c0,0,0.9,3.1,3.5,3.5"/>
<path id="패스_228" style="fill:none;stroke:#FFFFFF;stroke-miterlimit:10;" d="M34.8,63c0,0-0.2-13.6-1.7-19.2
	c-1.5-5.5,0.5-17.9,2.4-21.8"/>
<path id="패스_229" style="fill:none;stroke:#FFFFFF;stroke-miterlimit:10;" d="M32.6,35.4c0,0,0.5,4.8,6.1,9.3s7.9,5.7,8.1,7.9"
	/>
<path id="패스_230" style="fill:none;stroke:#FFFFFF;stroke-miterlimit:10;" d="M33.7,28.6c0,0,1.5,4,5.4,4.4
	c0.8-1.8,2.7-2.9,4.7-2.5c3.7,0.4,13.7,7,17.5,5.9c0,0-3.6,7.5-11.9,5.5C41,39.8,39.1,34.3,39.1,33"/>
<path id="패스_231" style="fill:none;stroke:#FFFFFF;stroke-miterlimit:10;" d="M39.1,33c3.4,0.1,6.8,0.9,9.9,2.4
	c4.5,2.4,6.3,2.8,7.8,2.6"/>
<path id="패스_232" style="fill:none;stroke:#FFFFFF;stroke-miterlimit:10;" d="M32.8,34.7c0,0-3.4,5.9-5.9,7
	c-2.5,1.1-10,3.8-13.2,9.1s-1.1,9.8-3.7,11.3c0,0,15-1.5,17.1-16.3c0,0,0.3-3.1,0.3-4.4c0,0-6,4.4-8.2,9.7c-1.6,3.7-2.9,6.2-3.9,6.8
	"/>
</svg>
