<?xml version="1.0" encoding="utf-8"?>
<!-- Generator: Adobe Illustrator 25.2.1, SVG Export Plug-In . SVG Version: 6.00 Build 0)  -->
<svg version="1.1" id="Layer_1" xmlns="http://www.w3.org/2000/svg" xmlns:xlink="http://www.w3.org/1999/xlink" x="0px" y="0px"
	 width="100px" height="140px" viewBox="0 0 100 140" style="enable-background:new 0 0 100 140;" xml:space="preserve">
<path id="패스_67" style="fill:none;stroke:#FFFFFF;stroke-miterlimit:10;" d="M53.7,129.9c0,0-10.6-44.7-4.2-60.9
	c4.6-11.1,10-22,16.1-32.4c-0.3-1.6-0.2-3.2,0.4-4.7c1-2.3,1.1-2.3,1.1-3.4s1.6-1.6,1.9-2.1c0.4-0.5,0.8-2.1,1.6-2.5
	c0.7-0.5,1.4-1.2,1.8-2.1c0.2-0.5,1.6-0.7,2.5-1.1c1-0.4,1.4-1.1,2.5-0.6c1.1,0.5,1.7-0.2,2,0c0.3,0.2,0.3,1.9-0.6,3.5
	s-1.2,1.9-1.3,2.7c-0.3,0.9-0.9,1.6-1.6,2.2c-0.5,0.5-0.9,1.1-1.1,1.8c-0.2,0.6-0.7,1.2-1.3,1.5c-0.6,0.3-1.1,0.8-1.4,1.5
	C72,33.5,70.7,34,70.5,34s-1.4,0.4-1.6,1c-0.2,0.7-2.3,1.6-3.3,1.6"/>
<path id="패스_68" style="fill:none;stroke:#FFFFFF;stroke-miterlimit:10;" d="M65.6,36.4c0,0,4.6-8.4,10.5-12.8"/>
<path id="패스_69" style="fill:none;stroke:#FFFFFF;stroke-miterlimit:10;" d="M74.2,23.2c-0.7,0.9-1.2,2-1.3,3.1"/>
<path id="패스_70" style="fill:none;stroke:#FFFFFF;stroke-miterlimit:10;" d="M71.9,27.4c1.1,0,2.1-0.2,3.1-0.6"/>
<path id="패스_71" style="fill:none;stroke:#FFFFFF;stroke-miterlimit:10;" d="M70.3,26.8c0,0-0.7,2.6-0.4,3.2"/>
<path id="패스_72" style="fill:none;stroke:#FFFFFF;stroke-miterlimit:10;" d="M68.2,32.2c1.2,0,2.4-0.5,3.2-1.3"/>
<path id="패스_73" style="fill:none;stroke:#FFFFFF;stroke-miterlimit:10;" d="M59,48.4c-0.6-0.5-1.3-0.9-2-1.2
	c-0.5-0.1-0.9-0.4-1.1-0.9c-0.1-0.4-0.8-1-1.2-1.2c-0.4-0.3-0.6-0.9-0.5-1.4c0-0.5-0.2-1-0.5-1.3c-0.5-0.6-0.7-1.4-0.7-2.2
	c0.1-1.1,0.2-1.8-0.2-2.2c-0.6-0.9-0.7-1.9-0.5-3c0.2-0.9,0.2-1.8-0.1-2.6c-0.2-0.4-0.2-1.9,0.8-2.1s1.6,0.8,2,2
	c0.2,0.8,0.6,1.5,1.3,1.9c0.6,0.5,1,1.2,1.3,1.9c0,0.6,0.3,1.2,0.7,1.7c0.5,0.6,0.7,1.3,0.7,2c-0.2,0.7-0.1,1.5,0.3,2.1
	c0.3,0.4,0.1,1.4,0,1.6c-0.1,0.4,0,0.9,0.2,1.3C59.4,45.2,59.8,46,59,48.4z"/>
<path id="패스_74" style="fill:none;stroke:#FFFFFF;stroke-miterlimit:10;" d="M59,48.4c-1.4-2.8-2.6-5.7-3.7-8.6
	c-0.6-2.2-1-4.9-1.2-5.3"/>
<path id="패스_75" style="fill:none;stroke:#FFFFFF;stroke-miterlimit:10;" d="M55.4,39.9c-0.7-0.6-1.2-1.3-1.5-2.2"/>
<path id="패스_76" style="fill:none;stroke:#FFFFFF;stroke-miterlimit:10;" d="M55.3,35.4c0,0.9-0.1,1.8-0.4,2.6"/>
<path id="패스_77" style="fill:none;stroke:#FFFFFF;stroke-miterlimit:10;" d="M56.5,39.7c0,0.8-0.1,1.7-0.4,2.5"/>
<path id="패스_78" style="fill:none;stroke:#FFFFFF;stroke-miterlimit:10;" d="M55.5,44c0.6,0.5,1.2,0.8,1.9,1"/>
<path id="패스_79" style="fill:none;stroke:#FFFFFF;stroke-miterlimit:10;" d="M59.1,48.2c0,0,1.8,0.5,2.1,0.9
	c0.3,0.4,0.8,0.5,1.3,0.4c0.6-0.1,1.1,0,1.6,0.2c0.5,0.1,1.1,0,1.4-0.4C66,49,66.5,48.9,67,49c0.8,0,1.6-0.2,2.2-0.8
	c0.8-0.7,1.3-1.2,1.9-1.2c1-0.1,2-0.6,2.7-1.3c0.6-0.7,1.3-1.2,2.2-1.5c0.5-0.1,1.6-1,1.2-1.9s-1.6-0.8-2.8-0.4
	c-0.7,0.3-1.5,0.3-2.3,0.1c-0.8-0.2-1.6-0.2-2.3,0.1c-0.5,0.3-1.1,0.5-1.7,0.5c-0.7-0.1-1.4,0.2-2,0.6c-0.5,0.5-1.1,0.9-1.9,1
	c-0.5,0-1.1,0.7-1.3,1c-0.3,0.3-0.7,0.5-1.1,0.6C61.4,46,60.6,46.1,59.1,48.2z"/>
<path id="패스_80" style="fill:none;stroke:#FFFFFF;stroke-miterlimit:10;" d="M59.1,48.2c0,0,6.9-1.2,9.1-2.1
	c2.2-0.8,4.6-2.1,5-2.1"/>
<path id="패스_81" style="fill:none;stroke:#FFFFFF;stroke-miterlimit:10;" d="M68.1,46.1c0.9,0.2,1.7,0.2,2.6-0.1"/>
<path id="패스_82" style="fill:none;stroke:#FFFFFF;stroke-miterlimit:10;" d="M71.7,43.6c-0.7,0.5-1.3,1.1-1.9,1.8"/>
<path id="패스_83" style="fill:none;stroke:#FFFFFF;stroke-miterlimit:10;" d="M67.5,45c-0.7,0.5-1.3,1.1-1.7,1.8"/>
<path id="패스_84" style="fill:none;stroke:#FFFFFF;stroke-miterlimit:10;" d="M64.8,48.4c-0.7-0.1-1.4-0.5-2-1"/>
<path id="패스_85" style="fill:none;stroke:#FFFFFF;stroke-miterlimit:10;" d="M51.4,64.4c0,0-3,0.2-3.5-1.8
	c-0.5-2.1-1.9-2.1-2.3-2.5c-0.9-0.7-1.4-1.7-1.4-2.8c0-1.7-0.4-2.2-0.8-2.6c-0.5-0.9-0.7-2-0.5-3.1c0.2-0.8,0.2-1.7-0.1-2.5
	c-0.2-0.2-0.5-1.7,0.2-2.2c0.7-0.5,1.5,0.3,1.9,0.7c0.4,0.4,0.9,0.6,1.5,0.7c0.4,0,1,0.4,1.4,1.4c0.2,0.6,0.6,1.2,1.2,1.5
	c0.2,0.1,0.8,0.3,1.1,1.9s1.4,1.5,1.6,2.3c0.3,1.1,0.3,2.2,0,3.2c-0.2,0.9-0.1,1.8,0.3,2.5C52.1,61.2,52.6,61.5,51.4,64.4z"/>
<path id="패스_86" style="fill:none;stroke:#FFFFFF;stroke-miterlimit:10;" d="M45.1,50.7c1.7,4.7,3.9,9.3,6.3,13.6"/>
<path id="패스_87" style="fill:none;stroke:#FFFFFF;stroke-miterlimit:10;" d="M46.7,51.9c0.3,1,0.3,2,0.1,3"/>
<path id="패스_88" style="fill:none;stroke:#FFFFFF;stroke-miterlimit:10;" d="M45.5,55.6c0.5,0.7,1.3,1.2,2.2,1.4"/>
<path id="패스_89" style="fill:none;stroke:#FFFFFF;stroke-miterlimit:10;" d="M49.3,57c0.2,0.9,0.1,1.9-0.3,2.7"/>
<path id="패스_90" style="fill:none;stroke:#FFFFFF;stroke-miterlimit:10;" d="M51.4,64.6c0,0,2.1,2.1,3.9,1
	c1.7-1.2,2.8-0.4,3.4-0.4c1.1,0.1,2.2-0.4,2.9-1.2c1.1-1.3,1.7-1.4,2.3-1.4c1-0.4,1.9-1.1,2.3-2.1c0.4-0.8,0.9-1.4,1.7-1.8
	c0.3-0.1,1.5-1,1.3-1.8c-0.2-0.8-1.3-0.8-1.9-0.7c-0.6,0-1.1-0.1-1.6-0.4c-0.2-0.2-1-0.4-2,0.1c-0.5,0.3-1.2,0.4-1.8,0.3
	c-0.3-0.1-0.8-0.3-2.1,0.7s-2,0.1-2.7,0.7C56.2,58.2,55.5,59,55,60c-0.3,0.8-1,1.4-1.9,1.7C53,61.8,52.4,61.6,51.4,64.6z"/>
<path id="패스_91" style="fill:none;stroke:#FFFFFF;stroke-miterlimit:10;" d="M65.1,58.6c-4.4,2.4-8.9,4.4-13.7,6.1"/>
<path id="패스_92" style="fill:none;stroke:#FFFFFF;stroke-miterlimit:10;" d="M63.2,58.4c-0.8,0.6-1.5,1.3-2,2.2"/>
<path id="패스_93" style="fill:none;stroke:#FFFFFF;stroke-miterlimit:10;" d="M61.6,61.9c-0.9,0.2-1.8,0.1-2.5-0.4"/>
<path id="패스_94" style="fill:none;stroke:#FFFFFF;stroke-miterlimit:10;" d="M57.8,60.5c-0.7,0.6-1.3,1.4-1.6,2.3"/>
<path id="패스_95" style="fill:none;stroke:#FFFFFF;stroke-miterlimit:10;" d="M47.5,81.4c0,0-2.9,0.7-3.8-1.2
	c-0.5-1.1-1.5-1.9-2.7-2.1c-1-0.5-1.7-1.5-1.9-2.6c-0.3-1.6-0.8-2.1-1.2-2.4c-0.7-0.8-1-1.9-1-3c0.1-0.8-0.1-1.7-0.5-2.4
	c-0.2-0.2-0.8-1.6-0.1-2.2c0.7-0.6,1.6,0.1,2,0.4c0.5,0.3,1,0.5,1.6,0.5c0.3-0.1,1,0.1,1.6,1.1c0.3,0.6,0.8,1,1.4,1.2
	c0.3,0.1,0.8,0.2,1.4,1.7c0.6,1.5,1.7,1.2,2,2c0.5,1,0.6,2.1,0.5,3.2c-0.1,0.9,0.1,1.8,0.7,2.4C47.6,78.2,48.2,78.4,47.5,81.4z"/>
<path id="패스_96" style="fill:none;stroke:#FFFFFF;stroke-miterlimit:10;" d="M39,69c2.5,4.3,5.3,8.5,8.5,12.4"/>
<path id="패스_97" style="fill:none;stroke:#FFFFFF;stroke-miterlimit:10;" d="M40.7,69.9c0.4,0.9,0.6,1.9,0.6,3"/>
<path id="패스_98" style="fill:none;stroke:#FFFFFF;stroke-miterlimit:10;" d="M40.2,73.8c0.6,0.6,1.5,1,2.3,1"/>
<path id="패스_99" style="fill:none;stroke:#FFFFFF;stroke-miterlimit:10;" d="M44.1,74.5c0.3,0.9,0.3,1.9,0.1,2.8"/>
<path id="패스_100" style="fill:none;stroke:#FFFFFF;stroke-miterlimit:10;" d="M47.5,81.6c0,0,2.4,1.8,4,0.3
	c1.5-1.5,2.7-0.8,3.3-0.9c1.1-0.1,2.1-0.7,2.7-1.7c0.9-1.5,1.5-1.7,2-1.8c1-0.5,1.7-1.4,2-2.4c0.2-0.8,0.7-1.5,1.4-2.1
	c0.2-0.1,1.3-1.2,1-2c-0.4-0.8-1.4-0.5-2-0.4c-0.5,0.1-1.1,0-1.6-0.2c-0.2-0.2-1-0.2-1.9,0.4c-0.5,0.4-1.1,0.7-1.7,0.6
	c-0.3-0.1-0.8-0.2-2,1s-2,0.5-2.6,1.1c-0.8,0.8-1.4,1.7-1.7,2.8c-0.2,0.8-0.8,1.6-1.6,2C48.6,78.6,47.9,78.5,47.5,81.6z"/>
<path id="패스_101" style="fill:none;stroke:#FFFFFF;stroke-miterlimit:10;" d="M60,73.3c-3.9,3.1-8.1,5.9-12.5,8.2"/>
<path id="패스_102" style="fill:none;stroke:#FFFFFF;stroke-miterlimit:10;" d="M58,73.5c-0.7,0.7-1.3,1.6-1.7,2.5"/>
<path id="패스_103" style="fill:none;stroke:#FFFFFF;stroke-miterlimit:10;" d="M57.1,77.3c-0.8,0.3-1.7,0.4-2.6,0.1"/>
<path id="패스_104" style="fill:none;stroke:#FFFFFF;stroke-miterlimit:10;" d="M53.1,76.5c-0.6,0.7-1,1.6-1.2,2.5"/>
<path id="패스_105" style="fill:none;stroke:#FFFFFF;stroke-miterlimit:10;" d="M48.3,98.8c0,0-2.8,1-3.9-0.8s-2.4-1.5-2.9-1.8
	c-1.1-0.4-1.8-1.3-2.1-2.4c-0.5-1.6-1-2.1-1.5-2.2c-0.8-0.8-1.2-1.8-1.3-2.8c0-0.9-0.3-1.7-0.8-2.4c-0.2-0.2-1-1.5-0.4-2.2
	s1.6-0.1,2,0.1c0.5,0.2,1.1,0.3,1.6,0.3c0.3-0.1,1,0.1,1.7,1c0.7,0.8,1.3,1,1.5,1c0.3,0,0.8,0.1,1.6,1.5s1.8,1,2.2,1.8
	c0.6,0.9,0.9,2,0.9,3.1c0,0.9,0.3,1.7,1,2.4C48.1,95.6,48.7,95.7,48.3,98.8z"/>
<path id="패스_106" style="fill:none;stroke:#FFFFFF;stroke-miterlimit:10;" d="M38.5,87.4c3,4,6.2,7.8,9.8,11.3"/>
<path id="패스_107" style="fill:none;stroke:#FFFFFF;stroke-miterlimit:10;" d="M40.3,88.1c0.5,0.9,0.8,1.9,0.9,2.9"/>
<path id="패스_108" style="fill:none;stroke:#FFFFFF;stroke-miterlimit:10;" d="M40.2,92c0.7,0.6,1.6,0.8,2.5,0.7"/>
<path id="패스_109" style="fill:none;stroke:#FFFFFF;stroke-miterlimit:10;" d="M44.3,92.3c0.4,0.8,0.6,1.8,0.5,2.7"/>
<path id="패스_110" style="fill:none;stroke:#FFFFFF;stroke-miterlimit:10;" d="M48.4,99c0,0,2.6,1.5,4-0.1
	c1.3-1.6,2.6-1.2,3.2-1.3c1.1-0.2,2-1,2.5-2c0.7-1.5,1.3-1.9,1.8-2c0.9-0.6,1.5-1.5,1.7-2.6c0.1-0.8,0.5-1.6,1.1-2.2
	c0.2-0.1,1.2-1.3,0.7-2.1s-1.5-0.4-2-0.2c-0.5,0.2-1.1,0.2-1.6,0c-0.3-0.2-1-0.1-1.9,0.7c-0.4,0.5-1,0.8-1.7,0.8
	c-0.3,0-0.8-0.1-1.8,1.3c-1,1.3-1.9,0.7-2.4,1.4c-0.7,0.8-1.2,1.8-1.4,2.9c-0.2,0.9-0.6,1.6-1.3,2.2C49.1,95.9,48.5,95.9,48.4,99z"
	/>
<path id="패스_111" style="fill:none;stroke:#FFFFFF;stroke-miterlimit:10;" d="M59.8,89.4c-3.6,3.5-7.4,6.7-11.5,9.6"/>
<path id="패스_112" style="fill:none;stroke:#FFFFFF;stroke-miterlimit:10;" d="M58,89.7c-0.6,0.8-1.1,1.7-1.4,2.7"/>
<path id="패스_113" style="fill:none;stroke:#FFFFFF;stroke-miterlimit:10;" d="M57.4,93.7c-0.8,0.5-1.7,0.6-2.5,0.4"/>
<path id="패스_114" style="fill:none;stroke:#FFFFFF;stroke-miterlimit:10;" d="M53.3,93.3c-0.5,0.8-0.9,1.7-0.9,2.6"/>
<path id="패스_115" style="fill:none;stroke:#FFFFFF;stroke-miterlimit:10;" d="M51.3,118.1c7.1-11.8,18.9-20.1,32.4-22.9"/>
<path id="패스_116" style="fill:none;stroke:#FFFFFF;stroke-miterlimit:10;" d="M51.4,118.3c0,0-8.2-6.9-15.9-8.2
	S16.8,97.3,13.7,77.7"/>
<path id="패스_117" style="fill:none;stroke:#FFFFFF;stroke-miterlimit:10;" d="M13.6,77.8c0,0-1.3-1-1.7-1
	c-0.4,0-0.8-0.4-0.9-0.8c-0.1-0.4-0.7-0.9-1-1c-0.4-0.3-0.5-0.8-0.5-1.2c0-0.4-0.2-0.9-0.5-1.2c-0.4-0.6-0.7-1.3-0.6-2
	c0.1-1,0.2-1.6-0.2-2c-0.5-0.8-0.6-1.7-0.5-2.7c0.2-0.8,0.2-1.6-0.1-2.3c-0.2-0.4-0.2-1.6,0.7-1.9s1.4,0.8,1.7,1.8
	c0.2,0.7,0.5,1.3,1.1,1.7c0.5,0.4,0.9,1,1.1,1.7c0.1,0.5,0.2,1.1,0.5,1.5c0.4,0.5,0.6,1.1,0.6,1.8c-0.2,0.6-0.1,1.3,0.2,1.9
	c0.3,0.4,0.1,1.2,0,1.5c-0.1,0.4,0,0.8,0.1,1.2C14.1,75,14.4,75.6,13.6,77.8z"/>
<path id="패스_118" style="fill:none;stroke:#FFFFFF;stroke-miterlimit:10;" d="M13.6,77.8c-1.2-2.5-2.3-5-3.2-7.6
	c-0.5-2-0.9-4.4-1.1-4.7"/>
<path id="패스_119" style="fill:none;stroke:#FFFFFF;stroke-miterlimit:10;" d="M10.5,70.3c-0.6-0.5-1-1.1-1.3-1.9"/>
<path id="패스_120" style="fill:none;stroke:#FFFFFF;stroke-miterlimit:10;" d="M10.4,66.4c0,0.8-0.1,1.6-0.3,2.3"/>
<path id="패스_121" style="fill:none;stroke:#FFFFFF;stroke-miterlimit:10;" d="M11.5,70.1c0,0.7-0.1,1.5-0.3,2.2"/>
<path id="패스_122" style="fill:none;stroke:#FFFFFF;stroke-miterlimit:10;" d="M10.5,73.9c0.5,0.5,1.1,0.8,1.7,0.9"/>
<path id="패스_123" style="fill:none;stroke:#FFFFFF;stroke-miterlimit:10;" d="M17.7,92.3c-0.7-0.1-1.4-0.1-2-0.1
	c-0.4,0.2-0.9,0.1-1.2-0.2c-0.4-0.3-0.9-0.4-1.4-0.4c-0.5-0.1-0.8-0.4-1-0.8c-0.2-0.4-0.5-0.7-1-0.8c-0.7-0.3-1.2-0.8-1.4-1.5
	C9.2,87.6,9,87,8.5,86.8c-0.8-0.4-1.4-1.2-1.7-2.1c-0.2-0.8-0.6-1.4-1.2-1.9c-0.4-0.2-1-1.4-0.2-2C6,80.2,7,80.8,7.7,81.5
	c0.5,0.5,1.1,0.8,1.8,1c0.7,0.1,1.3,0.5,1.8,0.9c0.3,0.5,0.7,0.8,1.2,1c0.6,0.2,1.1,0.7,1.4,1.2c0.2,0.6,0.6,1.2,1.1,1.5
	c0.4,0.2,0.7,1,0.7,1.3c0.1,0.4,0.4,0.7,0.7,0.9C16.7,89.6,17.4,90,17.7,92.3z"/>
<path id="패스_124" style="fill:none;stroke:#FFFFFF;stroke-miterlimit:10;" d="M17.7,92.3c-2.3-1.6-4.4-3.3-6.5-5.1
	c-1.4-1.5-2.9-3.3-3.2-3.6"/>
<path id="패스_125" style="fill:none;stroke:#FFFFFF;stroke-miterlimit:10;" d="M11.3,87.3c-0.8-0.2-1.5-0.5-2.1-1"/>
<path id="패스_126" style="fill:none;stroke:#FFFFFF;stroke-miterlimit:10;" d="M9.4,83.9c0.4,0.7,0.7,1.4,0.8,2.2"/>
<path id="패스_127" style="fill:none;stroke:#FFFFFF;stroke-miterlimit:10;" d="M12.1,86.6c0.4,0.6,0.6,1.3,0.8,2.1"/>
<path id="패스_128" style="fill:none;stroke:#FFFFFF;stroke-miterlimit:10;" d="M13.1,90.3c0.6,0.2,1.3,0.2,1.9,0"/>
<path id="패스_129" style="fill:none;stroke:#FFFFFF;stroke-miterlimit:10;" d="M17.9,92.6c0.5-0.5,1.1-0.9,1.7-1.2
	c0.4,0,0.8-0.4,0.9-0.8c0.1-0.4,0.7-0.9,1-1.1c0.4-0.3,0.5-0.8,0.4-1.3c0-0.4,0.1-0.9,0.4-1.2c0.4-0.6,0.6-1.3,0.5-2
	c-0.1-1-0.2-1.6,0.1-2c0.5-0.8,0.6-1.8,0.4-2.7c-0.2-0.7-0.2-1.6,0-2.3c0.2-0.4,0.1-1.7-0.8-1.9s-1.4,0.8-1.7,1.8
	c-0.2,0.7-0.5,1.3-1,1.8c-0.5,0.5-0.9,1.1-1,1.8c0,0.5-0.2,1.1-0.5,1.5c-0.4,0.5-0.6,1.2-0.5,1.8c0.2,0.6,0.1,1.3-0.2,1.9
	c-0.3,0.4-0.1,1.2,0.1,1.5c0.1,0.4,0.1,0.8-0.1,1.2C17.4,89.8,17.1,90.5,17.9,92.6z"/>
<path id="패스_130" style="fill:none;stroke:#FFFFFF;stroke-miterlimit:10;" d="M17.9,92.6c0,0,2.5-5.8,2.9-7.8
	c0.4-2,0.7-4.4,0.9-4.8"/>
<path id="패스_131" style="fill:none;stroke:#FFFFFF;stroke-miterlimit:10;" d="M20.8,85c0.6-0.5,1-1.2,1.3-1.9"/>
<path id="패스_132" style="fill:none;stroke:#FFFFFF;stroke-miterlimit:10;" d="M20.7,81c0,0.8,0.2,1.5,0.4,2.2"/>
<path id="패스_133" style="fill:none;stroke:#FFFFFF;stroke-miterlimit:10;" d="M19.8,84.8c0,0.7,0.2,1.5,0.4,2.2"/>
<path id="패스_134" style="fill:none;stroke:#FFFFFF;stroke-miterlimit:10;" d="M20.9,88.5c-0.5,0.5-1.1,0.8-1.7,1"/>
<path id="패스_135" style="fill:none;stroke:#FFFFFF;stroke-miterlimit:10;" d="M25.9,104.6c-0.7,0.1-1.4,0.3-2,0.6
	c-0.3,0.3-0.8,0.4-1.2,0.2c-0.5-0.1-1-0.1-1.4,0.1c-0.5,0.1-0.9-0.1-1.3-0.5c-0.3-0.3-0.7-0.5-1.1-0.4c-0.7,0-1.4-0.4-1.9-0.9
	c-0.7-0.7-1-1.2-1.6-1.2c-0.9-0.2-1.7-0.7-2.2-1.5c-0.4-0.6-1-1.2-1.7-1.5c-0.4-0.1-1.3-1-0.8-1.8s1.5-0.5,2.5-0.1
	c0.6,0.3,1.3,0.4,2,0.4c0.7-0.1,1.4,0,2,0.3c0.4,0.3,1,0.5,1.5,0.6c0.3,0,1.4,0.2,1.7,0.7c0.4,0.5,0.9,0.9,1.5,1.1
	c0.4,0.1,1,0.7,1.1,1c0.2,0.3,0.6,0.5,1,0.7C24.1,102.4,24.9,102.5,25.9,104.6z"/>
<path id="패스_136" style="fill:none;stroke:#FFFFFF;stroke-miterlimit:10;" d="M25.9,104.6c-2.6-0.8-5.2-1.7-7.8-2.8
	c-1.8-1-3.8-2.3-4.2-2.4"/>
<path id="패스_137" style="fill:none;stroke:#FFFFFF;stroke-miterlimit:10;" d="M18.3,101.8c-0.8,0.1-1.6,0-2.3-0.3"/>
<path id="패스_138" style="fill:none;stroke:#FFFFFF;stroke-miterlimit:10;" d="M15.3,99.2c0.6,0.5,1,1.1,1.4,1.8"/>
<path id="패스_139" style="fill:none;stroke:#FFFFFF;stroke-miterlimit:10;" d="M18.9,100.9c0.5,0.5,1,1.1,1.4,1.7"/>
<path id="패스_140" style="fill:none;stroke:#FFFFFF;stroke-miterlimit:10;" d="M21,104.2c0.7-0.1,1.3-0.3,1.9-0.7"/>
<path id="패스_141" style="fill:none;stroke:#FFFFFF;stroke-miterlimit:10;" d="M26.5,104.5c0.2-0.5,0.6-0.9,1-1.3
	c0.4-0.2,0.6-0.6,0.6-1c0-0.5,0.3-1,0.6-1.3c0.2-0.4,0.2-0.9,0-1.3c-0.2-0.4-0.2-0.9,0.1-1.3c0.2-0.7,0.2-1.4-0.1-2.1
	c-0.4-0.9-0.7-1.4-0.5-1.9c0.2-0.9,0-1.9-0.5-2.7c-0.5-0.6-0.7-1.4-0.7-2.2c0.1-0.4-0.4-1.6-1.4-1.5c-0.9,0.1-1.1,1.2-1,2.2
	c0,0.7-0.1,1.4-0.4,2c-0.3,0.6-0.5,1.3-0.5,2c0.2,0.5,0.2,1.1,0,1.6c-0.1,0.3-0.3,1.5,0.1,1.9c0.4,0.5,0.5,1.2,0.4,1.8
	c-0.1,0.4,0.4,1.2,0.5,1.4c0.2,0.4,0.3,0.8,0.2,1.2C24.8,102.3,25,102.7,26.5,104.5z"/>
<path id="패스_142" style="fill:none;stroke:#FFFFFF;stroke-miterlimit:10;" d="M26.2,104.8c0.3-2.8,0.4-5.5,0.4-8.3
	c-0.2-2.1-0.7-4.4-0.6-4.8"/>
<path id="패스_143" style="fill:none;stroke:#FFFFFF;stroke-miterlimit:10;" d="M26.6,96.7c0.4-0.7,0.6-1.5,0.6-2.2"/>
<path id="패스_144" style="fill:none;stroke:#FFFFFF;stroke-miterlimit:10;" d="M25.3,92.9c0.3,0.7,0.6,1.4,1.1,2"/>
<path id="패스_145" style="fill:none;stroke:#FFFFFF;stroke-miterlimit:10;" d="M25.6,96.9c0.2,0.7,0.6,1.4,1.1,1.9"/>
<path id="패스_146" style="fill:none;stroke:#FFFFFF;stroke-miterlimit:10;" d="M27.8,100.1c-0.3,0.6-0.7,1.1-1.3,1.5"/>
<path id="패스_147" style="fill:none;stroke:#FFFFFF;stroke-miterlimit:10;" d="M41,111.8c0,0-1.6,1.3-1.7,1.9
	c-0.2,0.5-0.6,0.9-1.2,1c-0.6,0.2-1.2,0.5-1.6,1c-0.5,0.4-1.1,0.5-1.7,0.3c-0.5-0.1-1.1,0-1.6,0.3c-0.8,0.4-1.7,0.5-2.6,0.2
	c-1.2-0.4-1.9-0.6-2.5-0.2c-1.1,0.4-2.3,0.4-3.4-0.1c-0.9-0.5-1.9-0.6-2.9-0.5c-0.5,0.1-2.1-0.2-2.2-1.5c0-1.2,1.3-1.6,2.6-1.7
	c0.9,0,1.7-0.4,2.4-1c0.7-0.5,1.5-0.9,2.4-1c0.7,0.1,1.4,0,2-0.3c0.7-0.4,1.6-0.5,2.3-0.3c0.7,0.4,1.6,0.4,2.3,0.2
	c0.5-0.2,1.5,0.2,1.8,0.4c0.5,0.2,1,0.2,1.4,0.1C37.6,110.6,38.5,110.3,41,111.8z"/>
<path id="패스_148" style="fill:none;stroke:#FFFFFF;stroke-miterlimit:10;" d="M41,111.8c0,0-7.6,1.9-10.3,2.1
	c-2.6,0.1-5.7,0-6.1,0.1"/>
<path id="패스_149" style="fill:none;stroke:#FFFFFF;stroke-miterlimit:10;" d="M30.8,114c-0.8,0.6-1.7,1-2.7,1.2"/>
<path id="패스_150" style="fill:none;stroke:#FFFFFF;stroke-miterlimit:10;" d="M26,113c1,0.2,1.9,0.5,2.8,1"/>
<path id="패스_151" style="fill:none;stroke:#FFFFFF;stroke-miterlimit:10;" d="M30.9,112.6c0.9,0.2,1.8,0.5,2.6,1"/>
<path id="패스_152" style="fill:none;stroke:#FFFFFF;stroke-miterlimit:10;" d="M35.3,114.7c0.7-0.5,1.3-1.2,1.6-1.9"/>
<path id="패스_153" style="fill:none;stroke:#FFFFFF;stroke-miterlimit:10;" d="M40.8,111.8c0.1-0.7,0.4-1.4,0.7-2.1
	c0.3-0.3,0.4-0.8,0.2-1.3c-0.1-0.5-0.1-1.1,0.1-1.6c0.1-0.5-0.1-1-0.4-1.3c-0.3-0.3-0.5-0.8-0.4-1.3c0-0.7-0.3-1.4-0.8-1.9
	c-0.7-0.7-1.2-1.2-1.1-1.7c-0.2-0.9-0.6-1.8-1.4-2.4c-0.7-0.4-1.2-1.1-1.4-1.9c-0.1-0.4-1-1.5-1.9-1c-0.8,0.4-0.6,1.6-0.2,2.6
	c0.3,0.7,0.4,1.4,0.2,2.1c-0.1,0.7,0,1.4,0.2,2.1c0.3,0.5,0.5,1,0.5,1.6c0,0.7,0.2,1.3,0.7,1.8c0.6,0.4,1,1,1.1,1.6
	c0,0.5,0.7,1,1,1.2c0.3,0.3,0.5,0.6,0.7,1C38.6,109.8,38.7,110.6,40.8,111.8z"/>
<path id="패스_154" style="fill:none;stroke:#FFFFFF;stroke-miterlimit:10;" d="M40.8,111.8c-0.7-2.8-1.6-5.5-2.6-8.2
	c-1-1.9-2.2-4.1-2.3-4.5"/>
<path id="패스_155" style="fill:none;stroke:#FFFFFF;stroke-miterlimit:10;" d="M38.3,103.7c0.1-0.8,0-1.6-0.2-2.4"/>
<path id="패스_156" style="fill:none;stroke:#FFFFFF;stroke-miterlimit:10;" d="M35.7,100.5c0.5,0.6,1.1,1.2,1.8,1.6"/>
<path id="패스_157" style="fill:none;stroke:#FFFFFF;stroke-miterlimit:10;" d="M37.3,104.3c0.5,0.6,1.1,1.1,1.7,1.5"/>
<path id="패스_158" style="fill:none;stroke:#FFFFFF;stroke-miterlimit:10;" d="M40.7,106.6c-0.1,0.7-0.3,1.4-0.7,1.9"/>
<path id="패스_159" style="fill:none;stroke:#FFFFFF;stroke-miterlimit:10;" d="M83.2,95.3c0,0,1.5-2.2,2.8-2
	c0.8,0.2,1.7,0.3,2.6,0.2c0.3-0.2,1.6-0.7,2.2,0.1c0.5,0.6,1.1,1.2,1.8,1.5c0.8,0.5,1.3,1.5,1.3,2.4c0,1,0.3,2.1,0.8,2.9
	c0.4,0.4,0.5,1-0.1,1.3s-1.7-1.2-2.6-1.2c-0.9-0.1-2.6,0.1-2.9-0.6c-0.5-0.6-1.2-0.9-2-1c-0.8-0.3-1.5-0.9-2-1.6
	C84.7,96.5,83.4,95.7,83.2,95.3z"/>
<path id="패스_160" style="fill:none;stroke:#FFFFFF;stroke-miterlimit:10;" d="M83.4,95.2c0,0,6.3,0.1,8.9,3.1"/>
<path id="패스_161" style="fill:none;stroke:#FFFFFF;stroke-miterlimit:10;" d="M87.6,95.9c1.2-0.3,2.5-0.3,3.7-0.1"/>
<path id="패스_162" style="fill:none;stroke:#FFFFFF;stroke-miterlimit:10;" d="M89.8,96.6c0.4,0.6,0.6,1.2,0.7,1.9"/>
<path id="패스_163" style="fill:none;stroke:#FFFFFF;stroke-miterlimit:10;" d="M74.3,98.2c0,0,0.9-2.1,0.5-2.8
	c-0.4-0.8-0.7-2.8,0-3.7c0.9-1,1.7-2,2.4-3.1c0.4-0.8,1.3-1.9,2.1-1.5s0.5,2.1,0.1,3c-0.4,0.7-0.5,1.4-0.4,2.2
	c0.2,0.8,0.1,1.7-0.4,2.5c-0.6,0.7-1,1-1.3,1.5C76.6,97.1,75.5,97.8,74.3,98.2z"/>
<path id="패스_164" style="fill:none;stroke:#FFFFFF;stroke-miterlimit:10;" d="M74.3,98.2c0,0,3.5-5.4,3.9-8.7"/>
<path id="패스_165" style="fill:none;stroke:#FFFFFF;stroke-miterlimit:10;" d="M76.4,91.3c0.2,0.7,0.4,1.5,0.4,2.2"/>
<path id="패스_166" style="fill:none;stroke:#FFFFFF;stroke-miterlimit:10;" d="M76.1,95c0.6-0.3,1.2-0.7,1.8-1.2"/>
<path id="패스_167" style="fill:none;stroke:#FFFFFF;stroke-miterlimit:10;" d="M74.5,98.3c0,0,3.7-1.6,5.3,0.4
	c1.1,1.3,1.6,1.9,2,2.1c0.7,0.1,1.4,0.7,1.6,1.4c0.2,0.9,0.3,1.8,0.3,2.7c0.1,0.7,1.3,1.9,0.4,2.7s-2.9-0.1-3.6-1.2
	c-0.4-0.8-1.1-1.4-1.9-1.7c-0.7-0.2-2.1-1.1-1.9-2.3s-0.7-1.5-1.3-1.7C74.9,100.7,74.5,99.8,74.5,98.3z"/>
<path id="패스_168" style="fill:none;stroke:#FFFFFF;stroke-miterlimit:10;" d="M74.5,98.3c0,0,5.2,2,6.9,5.9"/>
<path id="패스_169" style="fill:none;stroke:#FFFFFF;stroke-miterlimit:10;" d="M77.7,100.1c0.4,0.6,0.5,1.3,0.4,2"/>
<path id="패스_170" style="fill:none;stroke:#FFFFFF;stroke-miterlimit:10;" d="M79.9,102c0.8,0.1,1.5,0.4,2.1,0.9"/>
<path id="패스_171" style="fill:none;stroke:#FFFFFF;stroke-miterlimit:10;" d="M62.7,105c0,0,0.6-2.5,0-3.4s-1.4-3-0.8-4.2
	c0.8-1.3,1.5-2.7,2.1-4.1c0.2-1,1.1-2.4,2.1-2.2s1,2.3,0.7,3.3c-0.3,0.8-0.2,1.7,0.1,2.5c0.4,0.9,0.4,2,0.1,2.9
	c-0.4,0.6-0.8,1.3-1.2,2C65.5,102.5,65.1,103.4,62.7,105z"/>
<path id="패스_172" style="fill:none;stroke:#FFFFFF;stroke-miterlimit:10;" d="M62.7,105c0,0,2.9-7,2.7-10.8"/>
<path id="패스_173" style="fill:none;stroke:#FFFFFF;stroke-miterlimit:10;" d="M63.7,96.7c0.4,0.8,0.8,1.6,1,2.5"/>
<path id="패스_174" style="fill:none;stroke:#FFFFFF;stroke-miterlimit:10;" d="M64.1,101c0.6-0.5,1.2-1.1,1.8-1.7"/>
<path id="패스_175" style="fill:none;stroke:#FFFFFF;stroke-miterlimit:10;" d="M63,105.2c0,0,3.9-2.6,6.1-0.7
	c1.5,1.3,2.2,1.9,2.8,1.9c0.9,0,1.7,0.5,2.1,1.3c0.7,1.2,0.6,2.4,0.9,3.1s1.8,2,1.1,3c-0.8,1.1-3.4,0.5-4.3-0.5
	c-0.6-0.8-1.5-1.4-2.5-1.5c-0.8-0.1-2.6-0.8-2.7-2.2s-1.1-1.6-1.9-1.7C63.9,107.7,63.3,106.7,63,105.2z"/>
<path id="패스_176" style="fill:none;stroke:#FFFFFF;stroke-miterlimit:10;" d="M63,105.2c0,0,6.4,1.2,9.2,5.2"/>
<path id="패스_177" style="fill:none;stroke:#FFFFFF;stroke-miterlimit:10;" d="M67,106.5c0.5,0.6,0.8,1.4,0.9,2.2"/>
<path id="패스_178" style="fill:none;stroke:#FFFFFF;stroke-miterlimit:10;" d="M70,108.2c0.9-0.1,1.8,0.1,2.6,0.6"/>
</svg>
