<svg xmlns="http://www.w3.org/2000/svg" width="14" height="16" viewBox="0 0 14 16">
  <path d="M9.143 8c0-1.259-1.027-2.286-2.286-2.286S4.571 6.741 4.571 8s1.027 2.286 2.286 2.286S9.143 9.259 9.143 8zm1.232 0c0 1.946-1.571 3.518-3.518 3.518S3.339 9.947 3.339 8 4.91 4.482 6.857 4.482 10.375 6.053 10.375 8zm.964-3.661c0 .455-.366.821-.821.821s-.821-.366-.821-.821.366-.821.821-.821.821.366.821.821zM6.857 2.375c-1 0-3.143-.08-4.045.277-.313.125-.545.277-.786.518s-.393.473-.518.786c-.357.902-.277 3.045-.277 4.045s-.08 3.143.277 4.045c.125.313.277.545.518.786s.473.393.786.518c.902.357 3.045.277 4.045.277s3.143.08 4.045-.277c.313-.125.545-.277.786-.518s.393-.473.518-.786c.357-.902.277-3.045.277-4.045s.08-3.143-.277-4.045c-.125-.313-.277-.545-.518-.786s-.473-.393-.786-.518c-.902-.357-3.045-.277-4.045-.277zM13.714 8c0 .946.009 1.884-.045 2.83-.054 1.098-.304 2.071-1.107 2.875s-1.777 1.054-2.875 1.107c-.946.054-1.884.045-2.83.045s-1.884.009-2.83-.045c-1.098-.054-2.071-.304-2.875-1.107S.098 11.928.045 10.83C-.009 9.884 0 8.946 0 8s-.009-1.884.045-2.83c.054-1.098.304-2.071 1.107-2.875s1.777-1.054 2.875-1.107c.946-.054 1.884-.045 2.83-.045s1.884-.009 2.83.045c1.098.054 2.071.304 2.875 1.107s1.054 1.777 1.107 2.875c.054.946.045 1.884.045 2.83z"/>
</svg>
