<svg width="2762.5" height="465.5" viewBox="644.6 639.5 2762.5 465.5" xmlns="http://www.w3.org/2000/svg">
  <path fill="#1D1D1D" d="M3240.9 1097.9V645.8h39.9v420h126.3v32h-166.2zm-483.3-144.3h94.6l-47.5-266.4-47.1 266.4zm-27.8 144.3h-40.2c42.3-209.6 47-242.2 89.3-452.1h52l89.3 452.1h-40.5l-22.6-117.7h-104.3l-23 117.7zm-496.2 0V645.8h157.6v32h-117.7v171.3h84.1v30.2h-84.1v186.5h117.7v32h-157.6zm-509.9-252.7h80.4c47.8 0 57.3-41.5 57.3-83.8 0-44.9-10.5-83.5-57.3-83.5h-80.4v167.3zm-39.9 252.7V645.8h120.6c78.5 0 96.9 54.1 96.9 116.9 0 46.2-13.4 91.4-63 109.5l69.9 225.6h-42.6l-65.9-220.7h-75.9v220.7h-40zm-481 0V645.8h157.6v32h-117.7v171.3h84.1v30.2h-84.1v186.5h117.7v32h-157.6zM644.6 966.8V777.4c0-76.4 27.1-137.9 114.8-137.9 81.4 0 106.1 61.5 106.1 137.9v18.4h-38.1v-27.3c0-55.2-15.5-96.9-68-96.9-58.8 0-74.9 41.8-74.9 96.9v207.2c0 55.2 16 97.2 74.9 97.2 52.5 0 68-42 68-97.2v-31h38.1v22.1c0 75.9-22.6 138.2-106.1 138.2-89.8-.1-114.8-62.3-114.8-138.2"/>
</svg>
