<?xml version="1.0" encoding="utf-8"?>
<svg width="2762.49951171875" height="465.50006103515625" viewBox="644.6 639.5 2762.5 465.5" xmlns="http://www.w3.org/2000/svg">
  <g transform="matrix(1, 0, 0, 1, 0, 0)">
    <path fill="#F4F4F4" d="M3240.9,1097.9V645.8h39.9v420h126.3v32H3240.9z M2757.6,953.6h94.6l-47.5-266.4L2757.6,953.6z&#10;&#9;&#9; M2729.8,1097.9h-40.2c42.3-209.6,47-242.2,89.3-452.1h52l89.3,452.1h-40.5l-22.6-117.7h-104.3L2729.8,1097.9z M2233.6,1097.9&#10;&#9;&#9;V645.8h157.6v32h-117.7v171.3h84.1v30.2h-84.1v186.5h117.7v32H2233.6z M1723.7,845.2h80.4c47.8,0,57.3-41.5,57.3-83.8&#10;&#9;&#9;c0-44.9-10.5-83.5-57.3-83.5h-80.4V845.2z M1683.8,1097.9V645.8h120.6c78.5,0,96.9,54.1,96.9,116.9c0,46.2-13.4,91.4-63,109.5&#10;&#9;&#9;l69.9,225.6h-42.6l-65.9-220.7h-75.9v220.7H1683.8z M1202.8,1097.9V645.8h157.6v32h-117.7v171.3h84.1v30.2h-84.1v186.5h117.7v32&#10;&#9;&#9;H1202.8z M644.6,966.8V777.4c0-76.4,27.1-137.9,114.8-137.9c81.4,0,106.1,61.5,106.1,137.9v18.4h-38.1v-27.3&#10;&#9;&#9;c0-55.2-15.5-96.9-68-96.9c-58.8,0-74.9,41.8-74.9,96.9v207.2c0,55.2,16,97.2,74.9,97.2c52.5,0,68-42,68-97.2v-31h38.1v22.1&#10;&#9;&#9;c0,75.9-22.6,138.2-106.1,138.2C669.6,1104.9,644.6,1042.7,644.6,966.8"/>
  </g>
</svg>