<svg xmlns="http://www.w3.org/2000/svg" width="11" height="16" viewBox="0 0 11 16">
  <path d="M0 5.33C0 2.035 3.018 0 6.071 0c2.804 0 5.357 1.929 5.357 4.884 0 2.777-1.42 5.857-4.58 5.857-.75 0-1.696-.375-2.063-1.071-.679 2.688-.625 3.089-2.125 5.143l-.125.045-.08-.089c-.054-.563-.134-1.116-.134-1.679 0-1.821.839-4.455 1.25-6.223-.223-.455-.286-1.009-.286-1.509 0-.902.625-2.045 1.643-2.045.75 0 1.152.571 1.152 1.277 0 1.161-.786 2.25-.786 3.375 0 .768.634 1.304 1.375 1.304 2.054 0 2.688-2.964 2.688-4.545 0-2.116-1.5-3.268-3.527-3.268-2.357 0-4.179 1.696-4.179 4.089 0 1.152.705 1.741.705 2.018 0 .232-.17 1.054-.464 1.054-.045 0-.107-.018-.152-.027C.463 8.206-.001 6.501-.001 5.331z"/>
</svg>
