<?xml version="1.0" encoding="utf-8"?>
<!-- Generator: Adobe Illustrator 25.2.1, SVG Export Plug-In . SVG Version: 6.00 Build 0)  -->
<svg version="1.1" id="Layer_1" xmlns="http://www.w3.org/2000/svg" xmlns:xlink="http://www.w3.org/1999/xlink" x="0px" y="0px"
	 width="140px" height="120px" viewBox="0 0 140 120" style="enable-background:new 0 0 140 120;" xml:space="preserve">
<circle id="타원_25" style="fill:none;stroke:#151515;stroke-miterlimit:10;" cx="66.2" cy="57.2" r="34.3"/>
<circle id="타원_26" style="fill:none;stroke:#151515;stroke-miterlimit:10;" cx="66.2" cy="57.2" r="37"/>
<path id="패스_2370" style="fill:none;stroke:#151515;stroke-miterlimit:10;" d="M107.9,56.5c0,23-18.7,41.7-41.7,41.7
	S24.5,79.5,24.5,56.5s18.7-41.7,41.7-41.7S107.9,33.5,107.9,56.5L107.9,56.5z"/>
<path id="패스_2371" style="fill:none;stroke:#151515;stroke-width:1.005;stroke-miterlimit:10;" d="M38.4,37.1
	c7.5-0.8,18.4-1,26.7,1.6c6.6,2,18.3,2.3,30.1-0.1"/>
<path id="패스_2372" style="fill:none;stroke:#151515;stroke-miterlimit:10;" d="M32,55.2c9-0.9,22.4-1.2,32.6,1.4
	c7.8,2,21.6,2.2,35.7-0.2"/>
<path id="패스_2373" style="fill:none;stroke:#151515;stroke-width:0.993;stroke-miterlimit:10;" d="M35.6,72.8
	c8.3-0.5,18.5-0.3,26.6,1.8c7.4,1.9,20.1,2.2,33.3,0.1"/>
<path id="패스_2374" style="fill:none;stroke:#151515;stroke-miterlimit:10;" d="M70.2,15.1c0-0.9,0-1.7,0-2.6
	c0.1-1.4,0.7,0,1.4-2.4c0.6-2.4-5.4-2.6-5.4-2.6h-0.1c0,0-6,0.1-5.4,2.6s1.2,1.1,1.4,2.4c0.1,0.8,0.1,1.7,0,2.5"/>
<path id="패스_2375" style="fill:none;stroke:#151515;stroke-miterlimit:10;" d="M92.4,89.4c1.1,1.3,1.8,2.9,1.8,4.6
	c0.2,5.4,8.8,6.5,8.8,8.9v6.8c0,0-1.5,0.1-7.2,0.1H84.1c0,0-2.3-6.4-16.3-6.4h-3.4c-14,0-16.3,6.4-16.3,6.4H36.5
	c-5.7,0-7.2-0.1-7.2-0.1v-6.8c0-2.3,8.6-3.5,8.8-8.9c0.1-1.9,0.9-3.7,2.2-5"/>
<path id="패스_2376" style="fill:#EDE8E2;" d="M73.9,70c0,4.3-3.5,7.8-7.8,7.8s-7.8-3.5-7.8-7.8s3.5-7.8,7.8-7.8
	S73.9,65.7,73.9,70L73.9,70"/>
<circle id="타원_27" style="fill:none;stroke:#151515;stroke-miterlimit:10;" cx="66.2" cy="70" r="7.8"/>
<path id="패스_2377" style="fill:#EDE8E2;" d="M71.2,70c0,2.8-2.2,5-5,5c-2.8,0-5-2.2-5-5c0-2.8,2.2-5,5-5c0,0,0,0,0,0
	C68.9,65,71.2,67.2,71.2,70C71.2,70,71.2,70,71.2,70"/>
<circle id="타원_28" style="fill:none;stroke:#151515;stroke-miterlimit:10;" cx="66.2" cy="70" r="5"/>
<path id="패스_2378" style="fill:none;stroke:#151515;stroke-miterlimit:10;" d="M69.8,76.8v4.6c0,2.1-1.3,3.8-3,3.8h-1.3
	c-1.7,0-3-1.7-3-3.8v-4.5"/>
<path id="패스_2379" style="fill:#EDE8E2;" d="M97.1,79.1c0,0,0,5.5,1.3,8.3s4.3,4.5,5.2,5.3c0.9,0.7,1.4,1.7,1.4,2.8
	c-0.2,1.1-0.9,2.2-1.8,2.8c-1.6,1.2-3,2.6-4.3,4.1c-0.9,1.3-1.4,2.8-1.6,4.3c-0.1,1.6-0.1,3.1,0,4.7l18.3,0.2
	c0.1-1.9,0.1-3.9-0.2-5.8c-0.5-2.3-1.8-3.7-3.6-5.3c-1.2-1-4-3-4.1-5.1c0-2.1,3.2-4,4.5-5.3c1.5-1.5,2.6-3.4,3.2-5.5
	c0.3-1.9,0.3-3.8,0.1-5.7L97.1,79.1z"/>
<path id="패스_2380" style="fill:none;stroke:#000000;stroke-width:1.098;stroke-linecap:round;stroke-linejoin:round;" d="
	M97.1,79.1c0,0,0,5.5,1.3,8.3s4.3,4.5,5.2,5.3c0.9,0.7,1.4,1.7,1.4,2.8c-0.2,1.1-0.9,2.2-1.8,2.8c-1.6,1.2-3,2.6-4.3,4.1
	c-0.9,1.3-1.4,2.8-1.6,4.3c-0.1,1.6-0.1,3.1,0,4.7l18.3,0.2c0.1-1.9,0.1-3.9-0.2-5.8c-0.5-2.3-1.8-3.7-3.6-5.3c-1.2-1-4-3-4.1-5.1
	c0-2.1,3.2-4,4.5-5.3c1.5-1.5,2.6-3.4,3.2-5.5c0.3-1.9,0.3-3.8,0.1-5.7L97.1,79.1z"/>
<path id="패스_2381" style="fill:#EDE8E2;" d="M97.4,111c0,0,7.3-4.6,9.3-4.5c1.8,0.2,3.4,0.9,4.8,2.1c1.1,0.8,2.3,1.3,3.6,1.7
	c0.5,0,0.8,1.5,0.8,1.5L97.4,111z"/>
<path id="패스_2382" style="fill:none;stroke:#000000;stroke-width:1.098;stroke-linecap:round;stroke-linejoin:round;" d="
	M97.4,111c0,0,7.3-4.6,9.3-4.5c1.8,0.2,3.4,0.9,4.8,2.1c1.1,0.8,2.3,1.3,3.6,1.7c0.5,0,0.8,1.5,0.8,1.5L97.4,111z"/>
<path id="패스_2383" style="fill:#EDE8E2;" d="M96.7,77.4c-0.2,0.6-0.2,1.2,0.1,1.8c0.5,0.4,2.7,0.5,4.9,0.5s14.1,0.1,14.4-0.4
	c0.1-0.6,0.2-1.3,0.1-1.9L96.7,77.4z"/>
<path id="패스_2384" style="fill:none;stroke:#000000;stroke-width:1.098;stroke-linecap:round;stroke-linejoin:round;" d="
	M96.7,77.4c-0.2,0.6-0.2,1.2,0.1,1.8c0.5,0.4,2.7,0.5,4.9,0.5s14.1,0.1,14.4-0.4c0.1-0.6,0.2-1.3,0.1-1.9L96.7,77.4z"/>
<path id="패스_2385" style="fill:#EDE8E2;" d="M116.4,112.5c-0.1,0-0.2,0-0.3,0c0-0.4-0.1-0.8-0.3-1.2c-0.2-0.2-11.1-0.4-13.3-0.4
	s-5.9,0-6.1,0.6c-0.1,0.3-0.1,0.7,0,1c-0.1,0-0.1,0-0.2,0c-0.2,0.2-0.2,0.6,0.1,0.8c0,0,0.1,0.1,0.1,0.1h10.8c0.5,0,9,0.2,9.3,0
	C116.7,113.2,116.7,112.6,116.4,112.5"/>
<path id="패스_2386" style="fill:none;stroke:#000000;stroke-width:1.098;stroke-linecap:round;stroke-linejoin:round;" d="
	M116.4,112.5c-0.1,0-0.2,0-0.3,0c0-0.4-0.1-0.8-0.3-1.2c-0.2-0.2-11.1-0.4-13.3-0.4s-5.9,0-6.1,0.6c-0.1,0.3-0.1,0.7,0,1
	c-0.1,0-0.1,0-0.2,0c-0.2,0.2-0.2,0.6,0.1,0.8c0,0,0.1,0.1,0.1,0.1h10.8c0.5,0,9,0.2,9.3,0C116.7,113.2,116.7,112.6,116.4,112.5z"/>
<path id="패스_2387" style="fill:none;stroke:#000000;stroke-width:1.098;stroke-linecap:round;stroke-linejoin:round;" d="
	M109.1,92.8c-0.8,0.5-1.6,1-2.5,1.3c-1.5,0.2-2.6-1.1-2.9-1.4"/>
<path id="패스_2388" d="M106,99.8c-0.2,0-0.3,0.1-0.4,0.2c0,0.2,0.2,0.4,0.4,0.4c0,0,0,0,0,0c0.1,0,0.2-0.1,0.2-0.2c0,0,0,0,0,0
	C106.3,100,106.2,99.9,106,99.8C106,99.8,106,99.8,106,99.8L106,99.8"/>
<path id="패스_2389" d="M106,100.5c-0.3,0-0.5-0.2-0.5-0.4l0,0l0,0c0.1-0.2,0.3-0.3,0.5-0.3c0.2,0,0.4,0.2,0.4,0.4c0,0,0,0,0,0
	C106.4,100.4,106.2,100.5,106,100.5C106.1,100.5,106.1,100.5,106,100.5L106,100.5z M105.7,100c0.1,0.2,0.1,0.3,0.3,0.3
	c0,0,0.1,0,0.1-0.2c0-0.1-0.1-0.3-0.2-0.3c0,0,0,0,0,0C105.9,99.9,105.8,99.9,105.7,100L105.7,100z"/>
<path id="패스_2390" d="M106.3,97.3c0-0.2-0.1-0.2-0.5-0.2c-0.1,0-0.1,0.1-0.1,0.2c0,0.2,0.2,0.3,0.4,0.3
	C106.3,97.5,106.3,97.4,106.3,97.3"/>
<path id="패스_2391" d="M106.1,97.6L106.1,97.6c-0.2,0-0.5-0.1-0.5-0.3c0-0.1,0.1-0.2,0.2-0.3c0.2,0,0.3,0,0.5,0.1
	c0.1,0,0.1,0.1,0.1,0.2c0,0.1,0,0.2-0.1,0.2C106.2,97.6,106.2,97.6,106.1,97.6 M106,97.2c0,0-0.1,0-0.1,0c0,0-0.1,0-0.1,0.1
	c0,0.2,0.2,0.2,0.3,0.2c0,0,0.1,0,0.1,0c0,0,0-0.1,0-0.1c0,0,0-0.1-0.1-0.1C106.1,97.2,106,97.2,106,97.2L106,97.2z"/>
<path id="패스_2392" d="M107.5,98.4c-0.2,0.1-0.2,0.2-0.1,0.4c0,0.1,0.1,0.2,0.2,0.1c0.3-0.1,0.3-0.3,0.2-0.5
	C107.8,98.4,107.7,98.4,107.5,98.4"/>
<path id="패스_2393" d="M107.5,99.1c-0.1,0-0.2-0.1-0.2-0.2c-0.1-0.2-0.1-0.4,0.1-0.5c0,0,0,0,0.1,0h0c0.1,0,0.2,0,0.3,0
	c0.1,0,0.1,0.1,0.1,0.1c0.1,0.2,0,0.5-0.2,0.5c0,0-0.1,0-0.1,0L107.5,99.1C107.6,99.1,107.5,99.1,107.5,99.1 M107.5,98.5
	c-0.1,0-0.1,0.2-0.1,0.3c0,0,0,0.1,0,0.1c0,0,0,0,0,0c0.2-0.1,0.2-0.2,0.2-0.4c0,0,0,0,0,0C107.6,98.5,107.6,98.5,107.5,98.5
	L107.5,98.5z"/>
<path id="패스_2394" d="M106.6,101.4c-0.1,0-0.3,0.1-0.3,0.2c0,0,0,0,0,0.1c0,0.1,0.1,0.2,0.2,0.2h0c0.2,0,0.3-0.1,0.3-0.3
	C106.9,101.4,106.7,101.4,106.6,101.4"/>
<path id="패스_2395" d="M106.6,101.9c-0.1,0-0.1,0-0.2-0.1c-0.1,0-0.1-0.1-0.1-0.2c0-0.1,0-0.2,0.1-0.3c0.1-0.1,0.2-0.1,0.3-0.1
	c0.2,0,0.3,0.1,0.4,0.3c0,0.1,0,0.2-0.1,0.2C106.8,101.9,106.7,101.9,106.6,101.9L106.6,101.9 M106.6,101.5c0,0-0.1,0-0.1,0
	c0,0-0.1,0.1,0,0.1c0,0,0,0.1,0.1,0.1c0,0,0.1,0,0.1,0c0.1,0,0.1,0,0.2-0.1c0,0,0-0.1,0-0.1C106.8,101.5,106.7,101.4,106.6,101.5
	L106.6,101.5z"/>
<path id="패스_2396" style="fill:none;stroke:#000000;stroke-width:1.098;stroke-linecap:round;stroke-linejoin:round;" d="
	M99,87.8c0-0.4,3.4-0.8,7.5-0.8c4.1,0,7.5,0.3,7.5,0.8"/>
</svg>
