<?xml version="1.0" encoding="utf-8"?>
<!-- Generator: Adobe Illustrator 25.2.1, SVG Export Plug-In . SVG Version: 6.00 Build 0)  -->
<svg version="1.1" id="Layer_1" xmlns="http://www.w3.org/2000/svg" xmlns:xlink="http://www.w3.org/1999/xlink" x="0px" y="0px"
	 width="140px" height="120px" viewBox="0 0 140 120" style="enable-background:new 0 0 140 120;" xml:space="preserve">
<circle id="타원_1" style="fill:#EDE8E2;stroke:#382827;" cx="70" cy="24.1" r="8.1"/>
<path id="패스_3" style="fill:#EDE8E2;stroke:#382827;stroke-linecap:round;stroke-linejoin:round;" d="M69.1,26.1
	c-0.8-0.2-1.6,0-2.2,0.6c-0.6,0.6-0.1,4.3-1,7c-0.7,2.2-3.5,5.6-2.9,5.8l4.7,1.5c0.2-1.7,0.5-5.5,0.9-7.3c0.5-2,1.1-4,1.8-5.9
	C70.3,27,69.8,26.3,69.1,26.1z"/>
<circle id="타원_2" style="fill:#EDE8E2;stroke:#382827;" cx="63.1" cy="49.1" r="11.3"/>
<path id="패스_4" style="fill:#EDE8E2;stroke:#382827;stroke-linecap:round;stroke-linejoin:round;" d="M101.8,51.9
	c1.4,0.1,2.8-0.1,4.1-0.5v7.3c-0.9-0.9-13.2-4.1-18.6-5c-4.7-0.6-9.5-0.9-14.2-0.9c-0.5,0-2-0.6-1.7-2.8c0.3-1.7,1.2-2.8,2.8-2.8
	c1.7,0,13.1,3.3,16.3,3.7C94.2,51.5,98,51.8,101.8,51.9z"/>
<circle id="타원_3" style="fill:#EDE8E2;stroke:#382827;" cx="116.8" cy="56.4" r="12.2"/>
<path id="패스_5" style="fill:#EDE8E2;stroke:#382827;stroke-linecap:round;stroke-linejoin:round;" d="M31.2,42
	c-0.9-0.1-2.6-0.2-2.6-1.5c-0.2-0.9,0.4-3.5,2.6-3.8c1.1-0.2,4,1.2,5,1.7c4,1.7,8.1,3.1,12.4,4c2.4,0.5,5.3,0.3,6,1
	c0.9,0.9,1.1,2.2,0.6,3.3c-0.6,1.2-2,1.7-3.2,1.2c0,0-0.1,0-0.1-0.1c-2.5-1.2-5.1-2.3-7.8-3.2C39.8,43.4,35.6,42.5,31.2,42z"/>
<path id="패스_6" style="fill:#EDE8E2;stroke:#382827;stroke-linecap:round;stroke-linejoin:round;" d="M101.3,71.4
	c1.5-1.8,7.5-8.7,8.4-9.1s1.4-0.6,2.5,0.5c0.9,0.8,1.1,2.2,0.3,3.1c-0.1,0.1-0.2,0.2-0.3,0.3c-0.9,0.9-2.7,2.1-4.5,3.4
	c-2.2,1.9-4.2,4-5.9,6.4l-3.6,5.5l-3.6-3.6C97,75.9,99.3,73.8,101.3,71.4z"/>
<circle id="타원_4" style="fill:#EDE8E2;stroke:#382827;" cx="87.7" cy="89.1" r="15"/>
<circle id="타원_5" style="fill:#EDE8E2;stroke:#382827;" cx="22.2" cy="37.3" r="12.2"/>
<path id="패스_7" style="fill:none;stroke:#382827;stroke-linecap:round;stroke-linejoin:round;" d="M119.2,47.2
	c2.2,0,4.6,1.7,6.1,3.9s0.7,5.7,0,6.7"/>
<path id="패스_8" style="fill:none;stroke:#382827;stroke-linecap:round;stroke-linejoin:round;" d="M67.4,20
	c0.7-0.8,1.7-1.2,2.8-1.1c1.9,0,2.7,0.9,2.8,1.1"/>
<path id="패스_9" style="fill:none;stroke:#382827;stroke-linecap:round;stroke-linejoin:round;" d="M78,96.8
	c-1.1-1.8-0.6-2.6,0.4-2.2c0.7,0.3,1.5,2,3.3,3.2c1.5,0.9,3.9,0.6,5.8,0.6c0.8,0,1.5,0.6,0.8,1.2c-0.6,0.5-3,1.6-6.6,0.5
	C80,99.6,78.7,98.4,78,96.8z"/>
<path id="패스_10" style="fill:none;stroke:#382827;stroke-linecap:round;stroke-linejoin:round;" d="M65.7,40.6
	c-1-0.6-3.9-0.6-6.1,1.1c-2.2,1.7-1.8,6.5,0,5.6c1.1-0.6,0.6-2.8,2.2-3.9C63.5,42.2,67.4,41.7,65.7,40.6z"/>
<path id="패스_11" style="fill:none;stroke:#382827;stroke-linecap:round;stroke-linejoin:round;" d="M12.2,37.5
	c-0.5-0.5,0-2.7,1.1-5.4c1.6-2.7,4.3-4.3,4.3-2.7c0,0.5-1.1,1.6-2.7,3.8S13.2,38.5,12.2,37.5z"/>
</svg>
