<?xml version="1.0" encoding="utf-8"?>
<!-- Generator: Adobe Illustrator 25.2.1, SVG Export Plug-In . SVG Version: 6.00 Build 0)  -->
<svg version="1.1" id="Layer_1" xmlns="http://www.w3.org/2000/svg" xmlns:xlink="http://www.w3.org/1999/xlink" x="0px" y="0px"
	 width="140px" height="120px" viewBox="0 0 140 120" style="enable-background:new 0 0 140 120;" xml:space="preserve">
<path id="패스_12" style="fill:#EDE8E2;stroke:#000000;stroke-linejoin:round;" d="M35.4,29c0.8-1.2,1.7-2.4,2.7-3.5
	c0.4-0.4,0.7-0.8,1-1.1l0.1-0.1c0.2-0.2,0.4-0.4,0.5-0.5l45.4,1.8c2,1.6,3.5,3.7,4.5,6.1c0.5,1.7,0.8,3.4,0.7,5.2v47.5
	c0,3.7-1.3,5.7-2.8,6.9c-1.1,0.8-2.3,1.4-3.6,1.8c-0.3,0.1-0.7,0.2-0.9,0.3c-1.2,0.4-2.4,0.7-3.6,0.8c-1.7,0.3-3.7,0.6-5.8,0.8
	c-3.7,0.5-7.4,0.8-11.1,0.9c-5,0-14.4,0-22.8-3.5c-1.9-0.8-3.5-2-4.8-3.5c-0.9-1-1.5-2.3-1.6-3.7V45.5c0-2.9,0-6.2,0.3-9.2
	C33.8,33.3,34.4,30.7,35.4,29z"/>
<path id="패스_13" style="fill:none;stroke:#000000;stroke-linecap:round;stroke-linejoin:round;" d="M36,85.3V48.9
	c0.1-1,0.5-2,1.2-2.7c1-1.2,2.2-2.2,3.5-3.1c5.4-3.6,12.4-4.2,18.3-1.6c0.4,0.2,0.9,0.4,1.3,0.6c1.5,0.7,3.1,1.3,4.8,1.7
	c1.2,0.3,2.4,0.8,3.4,1.6l0.1,0c0.8,0.7,1.9,1.1,3,1.2c0.3,0,0.6-0.1,0.8-0.2c0.2-0.2,0.4-0.4,0.4-0.7c0-0.2,0-0.5-0.1-0.7
	c-0.1-0.2-0.2-0.4-0.3-0.6c-0.1-0.1-0.1-0.3-0.2-0.4l-0.1-0.1c0-0.1-0.1-0.1-0.1-0.1c1.6-0.2,3.2-0.6,4.8-1.2
	c1.5-0.5,2.9-1.2,4.1-1.7l0.7-0.3c1.1-0.4,2.2-0.7,3.4-0.8c1-0.1,1.9-0.2,2.6-0.2v45.6c-0.7,1.2-1.6,2.1-2.7,2.8
	c-1.3,0.9-2.7,1.6-4.2,2.1c-1.5,0.6-3,1-4.3,1.4l-0.9,0.3c-0.9,0.3-1.7,0.5-2.3,0.7c-0.5,0.2-1,0.3-1.5,0.3
	c-0.7,0.1-1.5,0.1-2.5,0.2c-1.9,0.1-4.3,0.1-6.8,0c-4.8-0.1-9.6-0.4-14.3-1.1c-3.1-0.5-6-1.7-8.7-3.4c-0.9-0.6-1.8-1.3-2.6-2.1
	c-0.2-0.2-0.5-0.5-0.7-0.8C36.1,85.6,36.1,85.5,36,85.3z M71.9,43.4L71.9,43.4z M71.6,43.8L71.6,43.8z"/>
<path id="패스_14" style="fill:#EDE8E2;stroke:#000000;stroke-linejoin:round;" d="M32,20c0.7-0.4,7.3-3.2,10.5-4.4h39.9
	c2.6,1.5,6.7,4.6,7.7,5.3c0.5,0.3-0.8,1.6-1.4,1.8c0.8,0.2,2.1,0.8,2.1,1.4c0,0.7-1.8,2.5-2.5,3.2c-0.7,0.5-1.6,0.7-2.5,0.7
	c-0.3,0.4-0.6,0.7-1.1,0.9c-1.9,0.7-5.6,0-6.7,0s-0.4,0-1.8,0.7c-1.5,0.8-4.2-1.2-6-1c-0.7,0-3.1,1.5-4.5,1.5
	c-1.8,0-2.4-1.1-2.8-1.1c-1.1,0.1-2.1,0.4-3.2,0.7c-1.2,0.4-3.8,1.7-6.6,1.4c-1.7-0.4-3.2-1.1-4.7-2.1c0,0-2.4,2.5-3.1,2.5
	c-0.8,0-5.3-3.2-7-4.2c-1.9-0.9-3.9-1.6-6-2l2.5-1.8L33.4,24C33.2,23.1,31.2,20.4,32,20z"/>
<path id="패스_15" style="fill:none;stroke:#000000;stroke-linecap:round;" d="M84.6,19.8c0.9,0.9,3.6,2.8,4.2,2.8"/>
<path id="패스_16" style="fill:none;stroke:#000000;stroke-linecap:round;" d="M39.7,19.5c-1.4,1.4-2.9,2.7-4.6,3.9"/>
<path id="패스_17" style="fill:none;stroke:#000000;stroke-linecap:round;" d="M49.2,16.7c-0.4,1.1,0.7,6.3,1.4,7.4"/>
<path id="패스_18" style="fill:none;stroke:#000000;stroke-linecap:round;" d="M76.2,19.5c-1.4,0.4-2.1,0.7-2.1,1.8
	c0,0.8,3,5.3,4.6,7.4"/>
<path id="패스_19" style="fill:none;stroke:#000000;stroke-linecap:round;" d="M63.6,20.2c-0.4,0.5-0.8,1.1-1.1,1.8"/>
<path id="패스_20" style="fill:none;stroke:#000000;stroke-linecap:round;" d="M62.9,28.9c-0.4-1.7-0.6-3.5-0.7-5.3"/>
<path id="패스_21" style="fill:#EDE8E2;stroke:#000000;" d="M45.5,6h34C82,6,84,8,84,10.5v1c0,1.4-1.1,2.5-2.5,2.5h-38
	c-1.4,0-2.5-1.1-2.5-2.5v-1C41,8,43,6,45.5,6z"/>
<path id="사각형_11" style="fill:#EDE8E2;stroke:#000000;" d="M42.4,14h40c0.8,0,1.5,0.7,1.5,1.5l0,0c0,0.8-0.7,1.5-1.5,1.5h-40
	c-0.8,0-1.5-0.7-1.5-1.5l0,0C40.9,14.7,41.6,14,42.4,14z"/>
<path id="패스_22" style="fill:none;stroke:#000000;stroke-linecap:round;" d="M42.5,14.5c0.2,0.7,0.8,2.2,1.4,2.5"/>
<path id="패스_23" style="fill:none;stroke:#000000;stroke-linecap:round;" d="M46,14.5c0.2,0.7,0.8,2.2,1.4,2.5"/>
<path id="패스_24" style="fill:none;stroke:#000000;stroke-linecap:round;" d="M49.6,14.5c0.2,0.7,0.8,2.2,1.4,2.5"/>
<path id="패스_25" style="fill:none;stroke:#000000;stroke-linecap:round;" d="M53.8,14.5c0.2,0.7,0.8,2.2,1.4,2.5"/>
<path id="패스_26" style="fill:none;stroke:#000000;stroke-linecap:round;" d="M58,14.5c0.5,1,1.2,1.9,2.1,2.5"/>
<path id="패스_27" style="fill:none;stroke:#000000;stroke-linecap:round;" d="M62.9,14.5c0.5,1,1.2,1.9,2.1,2.5"/>
<path id="패스_28" style="fill:none;stroke:#000000;stroke-linecap:round;" d="M67.8,14.5c0.1,1,0.6,1.9,1.4,2.5"/>
<path id="패스_29" style="fill:none;stroke:#000000;stroke-linecap:round;" d="M72.7,14.5c0.1,1,0.6,1.9,1.4,2.5"/>
<path id="패스_30" style="fill:none;stroke:#000000;stroke-linecap:round;" d="M76.9,14.5c0.1,1,0.6,1.9,1.4,2.5"/>
<path id="패스_31" style="fill:none;stroke:#000000;stroke-linecap:round;" d="M81.1,14.5c0.1,1,0.6,1.9,1.4,2.5"/>
<path id="패스_32" style="fill:#EDE8E2;stroke:#000000;stroke-linecap:round;stroke-linejoin:round;" d="M112.2,92.7l3.2,4.6
	l-5.6,1.2v1.9l-3.5-1.8l-1.1,2.5l-3.2-2.8l-1.4,2.1l-4.2-2.1l-1.1,1.8c-2.8-0.8-6.5-5-8.1-7l-3.2-10.9l10.9-4.6l8.1,0.3l1.1,3.6h3.5
	v2.7l2.1-0.3l0.3,2.8l2.5,1.1l-1.8,1.8l3.5,2.1L112.2,92.7z"/>
<path id="패스_33" style="fill:none;stroke:#000000;stroke-linecap:round;stroke-linejoin:round;" d="M89.1,84.3
	c2.4,0.5,4.7,1.2,7,2.1c2,0.8,6.9,3.7,9.5,5.3"/>
<path id="패스_34" style="fill:none;stroke:#000000;stroke-linecap:round;stroke-linejoin:round;" d="M101.7,86c-2-0.2-4-0.2-6,0"
	/>
<path id="패스_35" style="fill:none;stroke:#000000;stroke-linecap:round;stroke-linejoin:round;" d="M95.4,86.4
	c1.4,1.3,4.3,4.2,4.6,5.6"/>
<path id="패스_36" style="fill:#EDE8E2;stroke:#000000;stroke-linecap:round;stroke-linejoin:round;" d="M62.2,91.6l-2.8,4.9
	L64,97l1,2.7l3.5-0.7v2.5l3.9-2.1l1.8,2.1l3.5-2.5l1.4,2.1c6.7-1.4,10.9-9.5,11.6-13.3s-1.4-7-4.6-9.1c-2.5-1.7-10.5-1.2-14.7-0.3
	l-0.3,3.2l-4.6,1.1V85l-4.2,2.1l1.4,1.1l-3.5,2.5L62.2,91.6z"/>
<path id="패스_37" style="fill:none;stroke:#000000;stroke-linecap:round;stroke-linejoin:round;" d="M90.2,85
	c-2.8,0-8.3,1.3-12.2,3c-2.6,1.1-5.1,2.5-7.5,4"/>
<path id="패스_38" style="fill:none;stroke:#000000;stroke-linecap:round;stroke-linejoin:round;" d="M71.6,87.4
	c1.5-0.2,5-0.6,7,0"/>
<path id="패스_39" style="fill:none;stroke:#000000;stroke-linecap:round;stroke-linejoin:round;" d="M83.1,86.5
	c-2.1,2.1-4,4.5-5.6,7"/>
<path id="패스_40" style="fill:#EDE8E2;stroke:#000000;stroke-linecap:round;stroke-linejoin:round;" d="M88.4,55.9l2.5-2.5
	l1.8,2.5h1.1v2.5l2.1,0.3l0.3,2.1l1.4,0.3v3.2l1.4,0.3v3.2h1.8l-1.1,6l1.4,0.3c-3.5,10.5-9.5,11.6-13,11.6s-8.4-6.3-9.1-8.1
	c-0.6-1.4-0.7-6.9-0.7-9.5l1.8,0.3L79.7,65h1.4v-4.2l1.8,0.3l1.1-3.2l1.4,0.7l1.1-3.2L88.4,55.9z"/>
<path id="패스_41" style="fill:none;stroke:#000000;stroke-linecap:round;stroke-linejoin:round;" d="M89.8,60.8
	c-1.1,3.3-1.6,6.7-1.8,10.2c0,4.6,0,11.6,0.3,14.4"/>
<path id="패스_42" style="fill:none;stroke:#000000;stroke-linecap:round;stroke-linejoin:round;" d="M91.9,63.6
	c-1.1,1.2-3.2,3.7-3.5,4.6"/>
<path id="패스_43" style="fill:none;stroke:#000000;stroke-linecap:round;stroke-linejoin:round;" d="M84.6,69.9
	c0.9,1.2,3.2,4.1,3.5,5.3"/>
<path id="패스_44" style="fill:none;stroke:#000000;stroke-linecap:round;stroke-linejoin:round;" d="M93,73.1
	c-0.9,1.1-1.8,2.3-2.5,3.5c-0.8,1.2-1.5,2.5-2.1,3.9"/>
<path id="패스_45" style="fill:none;stroke:#000000;stroke-linejoin:round;stroke-miterlimit:10;" d="M42.5,100.5c2.7,1.3,4,5,4,5
	c0,3-3.5,5.5-8.5,7.5l-2.5-1l-2,1.5L31,112l-2,1.5l-2-1.5l-3,0.5l2-3V107l2.5-2l1-2.5l2-0.5l0.5-2C32,100,37.5,98,42.5,100.5z"/>
<path id="패스_46" style="fill:none;stroke:#000000;stroke-linecap:round;stroke-miterlimit:10;" d="M49,106c0,0-11.1-3-17,1.5"/>
<path id="패스_47" style="fill:none;stroke:#000000;stroke-linecap:round;stroke-miterlimit:10;" d="M40.3,105
	c-1.7-1.2-3.8-1.7-5.8-1.5"/>
<path id="패스_48" style="fill:none;stroke:#000000;stroke-linecap:round;stroke-miterlimit:10;" d="M37.5,105.7
	c-0.9,0.9-1.5,2-1.9,3.2"/>
</svg>
