<svg width="18.868002" height="18.864002" viewBox="5.25 4.374 18.868 18.864" xmlns="http://www.w3.org/2000/svg">
  <path fill="#454545" d="M16.999 17.874c-1.216.867-2.704 1.376-4.311 1.376-4.108 0-7.438-3.33-7.438-7.438s3.33-7.438 7.438-7.438 7.438 3.33 7.438 7.438c0 1.607-.51 3.095-1.376 4.311l4.887 4.887c.481.481.477 1.252 0 1.729l-.021.021c-.476.476-1.252.478-1.729 0L17 17.873zm-4.311-.374c3.141 0 5.688-2.546 5.688-5.688s-2.546-5.688-5.688-5.688C9.547 6.124 7 8.67 7 11.812S9.546 17.5 12.688 17.5z"/>
</svg>
