<svg xmlns="http://www.w3.org/2000/svg" width="15" height="16" viewBox="0 0 15 16">
  <path d="M14.464 3.643c-.393.571-.884 1.08-1.446 1.491.009.125.009.25.009.375 0 3.813-2.902 8.205-8.205 8.205-1.634 0-3.152-.473-4.429-1.295.232.027.455.036.696.036 1.348 0 2.589-.455 3.58-1.232-1.268-.027-2.33-.857-2.696-2 .179.027.357.045.545.045.259 0 .518-.036.759-.098C1.956 8.902.964 7.741.964 6.34v-.036c.384.214.83.348 1.304.366C1.491 6.152.982 5.268.982 4.268c0-.536.143-1.027.393-1.455 1.42 1.75 3.554 2.893 5.946 3.018-.045-.214-.071-.438-.071-.661 0-1.589 1.286-2.884 2.884-2.884.83 0 1.58.348 2.107.911.652-.125 1.277-.366 1.83-.696-.214.67-.67 1.232-1.268 1.589.58-.063 1.143-.223 1.661-.446z"/>
</svg>
